<?xml version="1.0" encoding="utf-8"?>
<!-- Generator: Adobe Illustrator 23.0.0, SVG Export Plug-In . SVG Version: 6.00 Build 0)  -->
<svg version="1.1" id="Layer_1" xmlns="http://www.w3.org/2000/svg" xmlns:xlink="http://www.w3.org/1999/xlink" x="0px" y="0px"
	 viewBox="0 0 226.8 226.8" style="enable-background:new 0 0 226.8 226.8;" xml:space="preserve">
<g>
	<path d="M113.4,0C51,0,0,51,0,113.4s51,113.4,113.4,113.4s113.4-51,113.4-113.4S175.7,0,113.4,0z M113.4,213
		c-55.1,0-98.8-44.5-98.8-99.6s43.7-98.8,98.8-98.8S213,58.3,213,113.4S168.5,213,113.4,213z"/>
	<path d="M162,107.7h-42.9V64.8c0-3.2-2.4-5.7-5.7-5.7s-5.7,2.4-5.7,5.7v42.9H64.8c-3.2,0-5.7,2.4-5.7,5.7s2.4,5.7,5.7,5.7h42.9V162
		c0,3.2,2.4,5.7,5.7,5.7s5.7-2.4,5.7-5.7v-42.9H162c3.2,0,5.7-2.4,5.7-5.7S165.2,107.7,162,107.7z"/>
</g>
</svg>
