<?xml version="1.0" encoding="utf-8"?>
<!-- Generator: Adobe Illustrator 23.0.0, SVG Export Plug-In . SVG Version: 6.00 Build 0)  -->
<svg version="1.1" id="Layer_1" xmlns="http://www.w3.org/2000/svg" xmlns:xlink="http://www.w3.org/1999/xlink" x="0px" y="0px"
	 viewBox="0 0 226.8 226.8" style="enable-background:new 0 0 226.8 226.8;" xml:space="preserve">
<g>
	<path d="M11,62.6c0.8-0.4,1.6-1.2,2.9-1.2h0.4c2.1-0.4,4.1-0.8,6.2-0.4l79.2,16.4c4.1,0.8,10.3,0,13.9-2.1l64.8-36.1
		c3.3-1.6,3.3-4.1,3.3-4.9c0-1.2-1.2-3.3-4.9-3.7L96.3,17.5c-2.9-0.4-7.4,0-9.8,1.6L12.2,56.1c-1.6,0.4-2.9,1.2-4.1,2.1
		C4,60.6,1.6,64.7,0.3,69.6c-0.8,4.5,0,9.4,2.5,13.5c1.6,2.5,3.3,4.1,5.7,5.7l-0.4,0.4c-4.1,2.5-6.6,6.6-7.8,11.5
		c-0.8,4.5,0,9.4,2.5,13.5c1.6,2.5,3.7,4.1,5.7,5.7l-0.4,0.4C4,122.9,1.6,127,0.3,132c-0.8,4.5,0,9.4,2.5,13.5
		c2.5,4.1,6.6,6.6,11.5,7.8l84.1,17.2c1.2,0.4,2.9,0.4,4.1,0.4c3.3,0,6.2-0.8,9.4-2.1l30.8-17.2c1.2-0.8,2.1-2.5,1.2-3.7
		c-0.8-1.2-2.5-2.1-3.7-1.2l-30.8,16.8c-3.3,1.6-6.6,2.1-9.8,1.2l-84.1-18.5c-3.3-0.8-6.2-2.5-7.8-5.3c-1.6-2.9-2.5-6.2-1.6-9
		c0.8-3.3,2.5-6.2,5.3-7.8c2.5-1.6,4.9-2.1,7.8-2.1c0,0,33.2,6.6,33.6,6.6c1.2,0,2.5-0.8,2.9-2.5c0.4-1.6-0.8-2.9-2.1-3.3l-37.7-7.8
		c-3.7,0-6.6-2.1-8.2-4.5c-1.6-2.9-2.5-6.2-1.6-9c0.8-3.3,2.5-6.2,5.3-7.8c2.5-1.6,4.9-2.1,7.8-2.1l79.2,16c1.2,0.4,2.9,0.4,4.1,0.4
		c3.3,0,6.2-0.8,9.4-2.1l70.6-39c1.2-0.8,2.1-2.5,1.2-3.7c-0.8-1.2-2.5-2.1-3.7-1.2l-70.2,39c-3.3,1.6-6.6,2.1-9.8,1.2L15.5,85.2
		c-3.3-0.8-6.2-2.5-7.8-5.3c-1.6-2.9-2.5-6.2-1.6-9C6.5,67.5,8.5,64.7,11,62.6 M88.9,24.1c1.6-0.8,4.5-1.2,6.6-0.8L173.4,36
		l-62.8,34.5c-2.5,1.2-7.4,2.1-10.3,1.6l-75.9-16L88.9,24.1z"/>
	<path d="M128.7,120.5l-20.1,11.1c-3.3,1.6-6.6,2.1-9.8,1.2l-7-1.6c-1.6-0.4-2.9,0.8-3.3,2.1c-0.4,1.6,0.8,2.9,2.1,3.3l7.4,1.6
		c1.2,0.4,2.9,0.4,4.1,0.4c3.3,0,6.2-0.8,9.4-2.1l20.1-11.1c1.2-0.8,2.1-2.5,1.2-3.7C132,120.1,130.4,119.6,128.7,120.5"/>
	<path d="M179.2,92.6l-23,12.7c-1.2,0.8-2.1,2.5-1.2,3.7c0.4,0.8,1.6,1.6,2.5,1.6c0.4,0,0.8,0,1.2-0.4l23-12.7
		c1.2-0.8,2.1-2.5,1.2-3.7C182.5,92.2,180.4,91.7,179.2,92.6"/>
	<path d="M63.9,113.1c-0.4,0-0.4,0-0.8,0c-2.1,0-4.1,1.6-4.1,4.1v25.4c0,1.2,0.4,2.1,0.8,2.9c1.2,1.2,3.3,1.6,4.9,0.8l4.9-2.5
		c0.4,0,0.4,0,0.4,0s0.4,0,1.2,0.8l6.6,5.3c1.2,0.8,2.1,0.8,2.9,0.8c1.6,0,3.7-1.2,3.7-4.1v-25.4c0-2.1-1.6-4.1-3.7-4.5L63.9,113.1z
		 M79.1,142.6l-3.7-2.9c-1.6-1.2-3.3-2.1-4.9-2.1c-1.2,0-2.5,0.4-2.9,0.8l-2.9,1.6v-21.3l14.4,2.9V142.6z"/>
	<path d="M93.9,38l37.3,6.2h0.4c1.2,0,2.5-0.8,2.9-2.5c0.4-1.6-0.8-2.9-2.5-3.3l-37.3-6.2c-1.6-0.4-2.9,0.8-3.3,2.5
		C91.4,36,92.2,37.6,93.9,38"/>
	<path d="M113.1,53.6c1.2,0,2.5-0.8,2.9-2.5c0.4-1.6-0.8-2.9-2.5-3.3l-37.3-6.2c-1.6-0.4-2.9,0.8-3.3,2.5c-0.4,1.6,0.8,2.9,2.5,3.3
		l37.3,6.2C112.7,53.6,113.1,53.6,113.1,53.6"/>
	<path d="M226,184.1l-2.5-5.7c-0.8-2.1-1.6-7-2.1-11.9c-0.8-6.6-1.6-13.5-3.7-18.1l-4.9-10.7c-2.5-5.3-8.6-9-13.9-6.6
		c-1.6,0.8-2.9,1.6-3.7,2.9c-2.9-3.7-7.8-5.3-12.3-3.3c-1.6,0.8-2.9,1.6-3.7,3.3c-1.2-1.2-2.5-2.1-4.1-2.9c-2.5-0.8-5.3-0.8-7.8,0.4
		c-1.2,0.8-2.5,1.6-3.7,2.9l-7-14.8c-2.5-5.7-8.2-7.8-13.1-5.7c-2.5,1.2-4.5,3.3-4.9,6.2c-0.4,2.5-0.4,4.9,0.8,7.8l16.8,35.7
		c-11.1-2.9-16.4,0-18.5,1.6c-2.5,2.1-3.3,4.5-2.5,7.4c0.8,2.9,2.9,4.9,5.7,5.3c9.8,2.5,13.9,5.7,21.3,13.9
		c5.3,5.7,12.7,7.8,17.6,8.6c1.2,0,2.9,1.2,3.7,2.5l1.6,3.3c0.8,1.6,2.5,2.9,4.9,3.3c0.4,0,0.8,0,1.2,0c1.6,0,3.3-0.4,4.9-1.2
		l26.3-12.3C226,193.9,228,188.6,226,184.1 M219.4,190.6l-26.3,12.3c-1.6,0.8-2.9,0.8-3.3,0.4l-1.6-3.3c-1.6-3.3-4.9-5.3-7.8-5.7
		c-3.3-0.4-9.8-2.1-14.4-6.6c-7.8-8.6-13.1-12.7-24.2-15.6c-0.8-0.4-1.6-0.8-1.6-1.2c0-0.4,0-1.2,0.8-1.6c2.5-2.1,8.6-2.9,18.9,1.6
		c1.2,0.4,2.5,0,3.3-0.8c0.8-0.8,0.8-2.1,0.4-3.3L143.9,125c-0.8-1.2-0.8-2.9-0.4-3.7c0.4-1.2,0.8-1.6,2.1-2.5
		c3.3-1.6,5.3,2.1,5.7,2.9l15.6,33.2c0.4,1.2,1.6,1.6,2.5,1.6c0.4,0,0.8,0,1.2-0.4c1.2-0.8,2.1-2.5,1.2-3.7l-4.9-10.3
		c-0.4-1.2-0.4-2.1,0-3.3c0.4-1.2,1.2-2.1,2.1-2.5c1.2-0.4,2.1-0.4,3.3,0c1.2,0.4,2.1,1.2,2.5,2.1l3.3,6.6c0.4,1.2,1.6,1.6,2.5,1.6
		c0.4,0,0.8,0,1.2-0.4c1.2-0.8,2.1-2.5,1.2-3.7l-0.4-1.2c-0.4-1.2-0.4-2.1,0-3.3c0.4-1.2,1.2-2.1,2.1-2.5c2.1-0.8,4.9,0,5.7,2.1
		c0,0,2.9,6.2,2.9,6.6c0.8,1.2,2.5,2.1,3.7,1.2c1.2-0.8,2.1-2.5,1.2-3.7c-0.4-1.2-0.4-2.5,0-3.3c0.4-1.2,1.2-2.1,2.1-2.5
		c2.9-1.2,5.7,1.6,6.6,4.1l4.9,10.7c1.6,3.7,2.5,10.7,3.3,16.4s1.2,10.7,2.5,13.5l2.5,5.7C221.5,188.2,221,190.2,219.4,190.6"/>
</g>
</svg>
