<?xml version="1.0" encoding="utf-8"?>
<!-- Generator: Adobe Illustrator 23.0.0, SVG Export Plug-In . SVG Version: 6.00 Build 0)  -->
<svg version="1.1" id="Layer_1" xmlns="http://www.w3.org/2000/svg" xmlns:xlink="http://www.w3.org/1999/xlink" x="0px" y="0px"
	 viewBox="0 0 226.8 226.8" style="enable-background:new 0 0 226.8 226.8;" xml:space="preserve">
<g>
	<path d="M200.9,64.5H99.7c-14.2,0-26,10.5-26,23.4c0,0-0.1,21.8,0,22.8c1.4,13,12.3,24,26.3,24.8c0.6,0,57.6,0,57.6,0
		c17.3,0,31.3-14,31.3-31.3V85h-12.5v19.4c0,10.4-8.4,18.8-18.8,18.8H100c-7.3-0.9-13.1-5.9-14.6-12.9V87.9
		c0-7.1,6.4-12.9,14.3-12.9h101.3c7.9,0,14.3,5.8,14.3,12.9v57.9c0,7.3-6.6,12.9-14.3,12.9h-8l7.5,22.2l-22.1-22.2H94.2
		c-3.6,0-6.6,2.3-6.6,5.2c0,2.9,3,5.3,6.6,5.3h81.5l28.6,28.7c9.7,9.8,14.1,7.1,9.7-5.9l-7.8-23.2c11.8-2.2,20.6-11.6,20.6-22.9
		V87.9C226.7,75,215.1,64.5,200.9,64.5"/>
	<path d="M157.6,23.1H31.3c-17.3,0-31.3,14-31.3,31.3v68.8c0,12.8,7.8,23.9,18.9,28.7L7.8,185.9c-4.2,13.1,0.2,15.7,9.8,5.8
		L54,154.3c0,0,16.4,0,16.5,0c3.5-0.3,6.3-3,6.3-6.2c0-3.3-2.8-6-6.3-6.2c-0.2,0-17.3,0-17.3,0l-32.1,33l10.2-33
		c-10.2,0-18.8-8.2-18.8-18.8V54.3c0-10.4,8.4-18.8,18.8-18.8h126.3c9.5,0,18.8,7.3,18.8,19.7h12.5
		C188.9,35.8,173.9,23.1,157.6,23.1"/>
</g>
</svg>
