<?xml version="1.0" encoding="utf-8"?>
<!-- Generator: Adobe Illustrator 23.0.0, SVG Export Plug-In . SVG Version: 6.00 Build 0)  -->
<svg version="1.1" id="Layer_1" xmlns="http://www.w3.org/2000/svg" xmlns:xlink="http://www.w3.org/1999/xlink" x="0px" y="0px"
	 viewBox="0 0 226.8 206.9" style="enable-background:new 0 0 226.8 206.9;" xml:space="preserve">
<rect x="13.9" y="75.8" width="10.5" height="24"/>
<rect x="13.9" y="119" width="10.5" height="24"/>
<g>
	<path d="M24,56.2H13.9V34.8c0-10.5,8.6-19.2,19.2-19.2h130l-8.6,10.5H33c-4.9,0-9,3.8-9,8.6V56.2z"/>
	<path d="M203.9,78.8v108.9c0,10.5-8.6,19.2-19.2,19.2H33c-10.5,0-19.2-8.6-19.2-19.2v-25.2h10.5v25.2c0,4.9,3.8,8.6,8.6,8.6h151.7
		c4.9,0,8.6-3.8,8.6-8.6v-4.5l0,0v-16.9l0,0V91.2L203.9,78.8z"/>
	<path d="M26.7,148.6H4.5c-2.6,0-4.5,1.9-4.5,4.5c0,2.6,1.9,4.5,4.5,4.5h22.2c1.5,2.6,4.5,4.5,7.5,4.5c4.9,0,8.6-4.1,8.6-8.6
		c0-4.9-4.1-8.6-8.6-8.6C30.8,144.1,28.2,146,26.7,148.6"/>
	<path d="M26.7,105.1H4.5c-2.6,0-4.5,1.9-4.5,4.5c0,2.6,1.9,4.5,4.5,4.5h22.2c1.5,2.6,4.5,4.1,7.5,4.1c4.9,0,8.6-4.1,8.6-8.6
		c0-4.9-4.1-8.6-8.6-8.6C30.8,100.6,28.2,102.4,26.7,105.1"/>
	<path d="M26.7,61.5H4.5C1.9,61.5,0,63.4,0,66c0,2.6,1.9,4.5,4.5,4.5h22.2c1.5,2.6,4.5,4.5,7.5,4.5c4.9,0,8.6-4.1,8.6-8.6
		c0-4.9-4.1-8.6-8.6-8.6C30.8,57,28.2,58.9,26.7,61.5"/>
	<path d="M173.5,24.3l-4.5,5.3c-25.2,30.8-50.3,61.6-75.1,92c-1.1,1.5-2.3,3.4-3,5.3c-5.3,13.9-10.5,27.8-15.4,41.3
		c-0.4,1.1-1.1,2.6-1.1,4.5c-0.4,3.4,1.9,6,4.9,6.4c1.1,0,1.9,0,3-0.4c1.5-0.4,3-1.5,4.1-2.3l6.8-4.1c8.3-5.3,16.5-10.1,24.8-15.4
		l1.1-0.8c3.4-2.3,7.1-4.5,10.5-8.6c16.9-21,34.2-41.7,51.1-62.7l25.9-31.9c0.4-0.4,0.8-0.8,1.1-1.1L173.5,24.3z M116.8,144.9
		c-5.3,3.4-10.1,6.4-15.4,9.8c-1.1,0.8-1.9,0.8-2.6,0c-1.1-1.1-2.6-1.9-3.8-3.4c-0.4-0.4-0.8-1.1-0.4-1.5c2.3-6.8,4.9-13.1,7.1-19.9
		c0-0.4,0.4-0.4,0.4-0.4c5.6,4.5,11.3,9.4,16.9,13.9C118.3,143.8,117.5,144.5,116.8,144.9"/>
	<path d="M222.7,15.7c-5.3-4.5-10.9-9-16.5-13.1c-5.3-4.1-12.4-3-17.3,2.6c-2.3,2.6-4.5,5.6-6.8,8.3l-1.9,2.3c0,0.4-0.4,0.4-0.4,0.8
		l0,0l2.6,1.9l0.8,0.8L211.4,42l3,2.3l2.6-3.4c2.3-2.6,4.5-5.3,6.4-7.9C228,27.3,228,20.2,222.7,15.7"/>
</g>
</svg>
