<?xml version="1.0" encoding="utf-8"?>
<!-- Generator: Adobe Illustrator 23.0.0, SVG Export Plug-In . SVG Version: 6.00 Build 0)  -->
<svg version="1.1" id="Layer_1" xmlns="http://www.w3.org/2000/svg" xmlns:xlink="http://www.w3.org/1999/xlink" x="0px" y="0px"
	 viewBox="0 0 226.8 226.8" style="enable-background:new 0 0 226.8 226.8;" xml:space="preserve">
<g>
	<path d="M218.5,26.9l7.8-12.9c0.6-1.2,0.6-2.7,0-3.9C225.7,8.9,224.2,8,223,8h-36c-2.1,0-3.9,1.8-3.9,3.9V17h-19.2v-6H156v9.9v30
		V62h-1.8c-0.3,0-0.6,0-0.9,0l-26.1,5.7L89.1,56c-0.3,0-0.9-0.3-1.2-0.3H52.8c-7.5,0-47.4,24.3-49.2,25.5l-0.3,0.3
		C2.3,82.5,2,84,2.3,85.2l11.1,42.9c0.9,3,3,5.7,6,7.2c3,1.5,6.3,1.8,9.3,0.9c3.3-0.9,5.7-3.3,7.2-6.3c1.5-3,1.8-6.3,0.6-9.3
		L30.8,96l11.1-5.4l0.3,109.3L2.3,217c-0.9,0.3-1.8,1.2-2.1,2.1c-0.3,0.9-0.3,2.1,0,3c0.9,2.1,3.3,2.7,5.1,2.1l82.6-35.4l38.4,16.5
		l0,0h0.3l43.8,18.9c0.6,0.3,0.9,0.3,1.5,0.3c1.5,0,3-0.9,3.6-2.4c0.3-0.9,0.6-2.1,0-3c-0.3-0.9-1.2-1.8-2.1-2.1l-9.6-4.2V87.9h1.5
		c4.2,0,7.5-3.3,7.5-7.5V69.5c0-4.2-3.3-7.5-7.5-7.5h-1.5v-7.2H196c2.1,0,3.9-1.8,3.9-3.9v-5.1H223c1.5,0,2.7-0.9,3.3-2.1
		c0.6-1.2,0.6-2.7,0-3.9L218.5,26.9z M187,24.8L187,24.8h5.1V47h-28.2V24.8H187L187,24.8z M196,17h-5.1v-1.2h25.2l-5.4,9
		c-0.9,1.2-0.9,2.7,0,3.9l5.4,9h-16.2V20.9C199.9,18.8,198.1,17,196,17z M131.4,165.3c-0.3-5.1-2.4-10.2-6.3-13.8l-21.3-21.3V91.8
		l22.2,4.8c0.6,0,1.5,0,2.1,0l26.4-8.7h1.5v121.6l-22.2-9.6L131.4,165.3z M152.7,80.4l-26.1,8.7l-25.8-5.7c-1.2-0.3-2.4,0-3.3,0.9
		s-1.5,1.8-1.5,3v45c0,0.9,0.3,2.1,1.2,2.7l22.2,22.2c2.4,2.4,3.6,5.4,3.9,8.7l2.1,30.6l-15.9-6.9l-3-24.9c0-1.2-0.6-2.1-1.5-2.7
		l-30-23.7c-1.2-0.9-2.7-1.2-4.2-0.6c-1.2,0.6-2.1,2.1-2.1,3.6v47.1l-19.2,8.1L49.2,85.5c0-1.5-0.9-2.7-2.1-3.6
		c-1.2-0.6-3-0.6-3.9,0.3l-19.2,9.3c-1.5,0.9-2.1,2.7-1.5,4.2l7.2,27.6c0.3,1.2,0.3,2.4-0.3,3.3c-0.3,1.2-1.2,2.1-2.4,2.4
		c-1.2,0.3-2.4,0.3-3.3-0.3c-0.9-0.6-1.8-1.5-2.1-2.7L10.7,85.5c15-8.7,38.1-21.6,42-21.6h34.5L126,75.6c0.6,0.3,1.2,0.3,2.1,0
		l26.4-6h10.8v10.2h-11.1C153.6,80.1,153.3,80.1,152.7,80.4z M77.1,184.8v-35.4l22.5,17.7l2.4,19.2l-12-5.1c-0.9-0.6-2.1-0.6-3.3,0
		L77.1,184.8z"/>
	<path d="M73.2,52.1c13.2,0,21.9-9.9,21.9-24.9S86.4,2.3,73.2,2.3s-21.9,9.9-21.9,24.9S60,52.1,73.2,52.1z M59.1,27.2
		c0-7.8,3.6-17.1,14.1-17.1s14.1,9.3,14.1,17.1s-3.6,17.1-14.1,17.1S59.1,35,59.1,27.2z"/>
	<rect x="69.3" y="83.4" width="7.8" height="7.8"/>
	<rect x="69.3" y="98.4" width="7.8" height="4.8"/>
	<rect x="69.3" y="110.4" width="7.8" height="7.8"/>
</g>
</svg>
