<?xml version="1.0" encoding="utf-8"?>
<!-- Generator: Adobe Illustrator 23.0.0, SVG Export Plug-In . SVG Version: 6.00 Build 0)  -->
<svg version="1.1" id="Layer_1" xmlns="http://www.w3.org/2000/svg" xmlns:xlink="http://www.w3.org/1999/xlink" x="0px" y="0px"
	 viewBox="0 0 226.8 226.8" style="enable-background:new 0 0 226.8 226.8;" xml:space="preserve">
<g>
	<path d="M113.7,162.6c-35.7,0-71.8-6.8-71.8-20c0-4.5,4.1-8.6,12.3-11.7c1-0.4,1.1-0.4,1.3-0.5c0.1,0,0.4-0.1,0.9-0.3
		c1.4-0.5,3.1,0.4,3.6,1.8c0.5,1.4-0.4,3.1-1.8,3.6c-0.7,0.2-0.9,0.3-1.1,0.3c-0.2,0.1-0.4,0.1-0.8,0.3c-6.4,2.6-8.8,5.1-8.8,6.5
		c0,5.9,25.8,14.4,66.2,14.4s66.2-8.6,66.2-14.4c0-1.5-2.3-4-9-6.5l0,0c-0.5,0-0.9-0.2-1.3-0.3c-1.4-0.5-2.3-2-1.8-3.6
		c0.5-1.4,2-2.3,3.6-1.8h0.1c0.6,0,1.2,0.2,1.5,0.4c8.3,3.3,12.5,7.2,12.5,11.8C185.5,155.7,149.4,162.6,113.7,162.6"/>
	<path d="M113.7,162.6c-35.7,0-71.8-6.8-71.8-20c0-4.5,4.1-8.6,12.3-11.7c1-0.4,1.1-0.4,1.3-0.5c0.1,0,0.4-0.1,0.9-0.3
		c1.4-0.5,3.1,0.4,3.6,1.8c0.5,1.4-0.4,3.1-1.8,3.6c-0.7,0.2-0.9,0.3-1.1,0.3c-0.2,0.1-0.4,0.1-0.8,0.3c-6.4,2.6-8.8,5.1-8.8,6.5
		c0,5.9,25.8,14.4,66.2,14.4s66.2-8.6,66.2-14.4c0-1.5-2.3-4-9-6.5l0,0c-0.5,0-0.9-0.2-1.3-0.3c-1.4-0.5-2.3-2-1.8-3.6
		c0.5-1.4,2-2.3,3.6-1.8h0.1c0.6,0,1.2,0.2,1.5,0.4c8.3,3.3,12.5,7.2,12.5,11.8C185.5,155.7,149.4,162.6,113.7,162.6z"/>
	<path d="M41.8,181.9c-1,0-1.9-0.5-2.4-1.3c-0.8-1.3-0.4-3.1,1-3.8L75,155.6c1.3-0.8,3.1-0.4,3.8,1s0.4,3.1-1,3.8l-34.6,21.1
		C42.8,181.7,42.4,181.9,41.8,181.9"/>
	<path d="M41.8,181.9c-1,0-1.9-0.5-2.4-1.3c-0.8-1.3-0.4-3.1,1-3.8L75,155.6c1.3-0.8,3.1-0.4,3.8,1s0.4,3.1-1,3.8l-34.6,21.1
		C42.8,181.7,42.4,181.9,41.8,181.9z"/>
	<path d="M32.7,194.7c-4.1,0-8.1-0.6-11.3-1.5c-6.1-2-7.1-5.2-7.2-6.9s0.7-5,6.5-7.5c3.5-1.5,8.2-2.4,13.1-2.6s9.6,0.3,13.3,1.5
		c6.1,2,7.1,5.2,7.2,6.9s-0.7,5-6.5,7.5c-3.5,1.4-8.2,2.4-13.1,2.6C34.1,194.6,33.4,194.7,32.7,194.7 M36.1,181.6
		c-0.6,0-1.3,0-1.8,0c-9.1,0.4-14,3.3-14.2,4.3c0.4,0.9,5.5,3.4,14.5,3c9-0.4,13.8-3.2,14.2-4.3C48.2,183.7,43.9,181.6,36.1,181.6"
		/>
	<path d="M32.7,194.7c-4.1,0-8.1-0.6-11.3-1.5c-6.1-2-7.1-5.2-7.2-6.9s0.7-5,6.5-7.5c3.5-1.5,8.2-2.4,13.1-2.6s9.6,0.3,13.3,1.5
		c6.1,2,7.1,5.2,7.2,6.9s-0.7,5-6.5,7.5c-3.5,1.4-8.2,2.4-13.1,2.6C34.1,194.6,33.4,194.7,32.7,194.7z M36.1,181.6
		c-0.6,0-1.3,0-1.8,0c-9.1,0.4-14,3.3-14.2,4.3c0.4,0.9,5.5,3.4,14.5,3c9-0.4,13.8-3.2,14.2-4.3C48.2,183.7,43.9,181.6,36.1,181.6z
		 M48.8,184.7L48.8,184.7z"/>
	<path d="M184.7,181.9c-0.5,0-1-0.1-1.4-0.4l-34.6-21.1c-1.3-0.8-1.7-2.5-1-3.8s2.5-1.7,3.8-1l34.6,21.1c1.3,0.8,1.7,2.5,1,3.8
		C186.6,181.4,185.7,181.9,184.7,181.9"/>
	<path d="M184.7,181.9c-0.5,0-1-0.1-1.4-0.4l-34.6-21.1c-1.3-0.8-1.7-2.5-1-3.8s2.5-1.7,3.8-1l34.6,21.1c1.3,0.8,1.7,2.5,1,3.8
		C186.6,181.4,185.7,181.9,184.7,181.9z"/>
	<path d="M193.8,194.7c-0.7,0-1.3,0-2,0c-9.6-0.4-19.9-3.8-19.6-10.1c0.1-1.7,1.1-4.9,7.2-6.9c3.7-1.2,8.3-1.7,13.3-1.5
		c4.9,0.2,9.6,1.2,13.1,2.6c5.9,2.5,6.6,5.8,6.5,7.5C211.9,192.1,202.8,194.7,193.8,194.7 M177.8,184.7c0.5,1.1,5.3,3.9,14.2,4.3
		c9.1,0.4,14.2-2.1,14.6-3.2c-0.3-0.9-5.2-3.8-14.2-4.2C183.5,181.3,178.4,183.6,177.8,184.7"/>
	<path d="M193.8,194.7c-0.7,0-1.3,0-2,0c-9.6-0.4-19.9-3.8-19.6-10.1c0.1-1.7,1.1-4.9,7.2-6.9c3.7-1.2,8.3-1.7,13.3-1.5
		c4.9,0.2,9.6,1.2,13.1,2.6c5.9,2.5,6.6,5.8,6.5,7.5C211.9,192.1,202.8,194.7,193.8,194.7z M177.8,184.7c0.5,1.1,5.3,3.9,14.2,4.3
		c9.1,0.4,14.2-2.1,14.6-3.2c-0.3-0.9-5.2-3.8-14.2-4.2C183.5,181.3,178.4,183.6,177.8,184.7z"/>
	<path d="M172.3,135.7c-1,0-1.9-0.5-2.4-1.3c-0.8-1.3-0.4-3.1,1-3.8l29.4-17.6c1.3-0.8,3.1-0.4,3.8,1s0.4,3.1-1,3.8l-29.4,17.6
		C173.3,135.6,172.8,135.7,172.3,135.7"/>
	<path d="M172.3,135.7c-1,0-1.9-0.5-2.4-1.3c-0.8-1.3-0.4-3.1,1-3.8l29.4-17.6c1.3-0.8,3.1-0.4,3.8,1s0.4,3.1-1,3.8l-29.4,17.6
		C173.3,135.6,172.8,135.7,172.3,135.7z"/>
	<path d="M207.7,118.4c-8,0-16.2-2.3-16.4-7.7c-0.1-1.6,0.6-4.6,5.9-6.8c3.1-1.3,7.1-2.1,11.5-2.3c8.6-0.4,17.9,1.9,18.1,7.7
		c0.3,5.8-8.9,8.9-17.4,9.1C208.9,118.4,208.3,118.4,207.7,118.4 M197.1,110.4c1,1,5.1,2.6,12.1,2.3c7-0.3,11.1-2.3,11.9-3.4
		c-1-1-5.1-2.6-12.1-2.3C201.9,107.4,197.9,109.4,197.1,110.4"/>
	<path d="M207.7,118.4c-8,0-16.2-2.3-16.4-7.7c-0.1-1.6,0.6-4.6,5.9-6.8c3.1-1.3,7.1-2.1,11.5-2.3c8.6-0.4,17.9,1.9,18.1,7.7
		c0.3,5.8-8.9,8.9-17.4,9.1C208.9,118.4,208.3,118.4,207.7,118.4z M197.1,110.4c1,1,5.1,2.6,12.1,2.3c7-0.3,11.1-2.3,11.9-3.4
		c-1-1-5.1-2.6-12.1-2.3C201.9,107.4,197.9,109.4,197.1,110.4z"/>
	<path d="M55.2,136c-0.5,0-1-0.1-1.4-0.4l-30-17.9c-1.3-0.8-1.7-2.5-1-3.8c0.8-1.3,2.5-1.7,3.8-1l30,17.9c1.3,0.8,1.7,2.5,1,3.8
		C57.1,135.5,56.1,136,55.2,136"/>
	<path d="M55.2,136c-0.5,0-1-0.1-1.4-0.4l-30-17.9c-1.3-0.8-1.7-2.5-1-3.8c0.8-1.3,2.5-1.7,3.8-1l30,17.9c1.3,0.8,1.7,2.5,1,3.8
		C57.1,135.5,56.1,136,55.2,136z"/>
	<path d="M19.1,118.4c-0.6,0-1.2,0-1.7,0c-4.3-0.2-8.4-1-11.5-2.3c-5.3-2.2-6-5.3-5.9-6.8c0.1-1.6,1-4.5,6.4-6.4
		c3.2-1.1,7.3-1.5,11.6-1.3s8.4,1,11.5,2.3c5.3,2.2,6,5.3,5.9,6.8C35.2,116.1,27.1,118.4,19.1,118.4 M5.7,109.4
		c0.9,1.1,4.8,3.1,11.9,3.4s11.2-1.3,12.1-2.3c-0.9-1.1-4.8-3.1-11.9-3.4C10.8,106.7,6.6,108.5,5.7,109.4 M29.8,110.6L29.8,110.6
		L29.8,110.6z"/>
	<path d="M19.1,118.4c-0.6,0-1.2,0-1.7,0c-4.3-0.2-8.4-1-11.5-2.3c-5.3-2.2-6-5.3-5.9-6.8c0.1-1.6,1-4.5,6.4-6.4
		c3.2-1.1,7.3-1.5,11.6-1.3s8.4,1,11.5,2.3c5.3,2.2,6,5.3,5.9,6.8C35.2,116.1,27.1,118.4,19.1,118.4z M5.7,109.4
		c0.9,1.1,4.8,3.1,11.9,3.4s11.2-1.3,12.1-2.3c-0.9-1.1-4.8-3.1-11.9-3.4C10.8,106.7,6.6,108.5,5.7,109.4z M29.8,110.6L29.8,110.6
		L29.8,110.6z"/>
	<path d="M113.3,144.5c-1.5,0-2.8-1.3-2.8-2.8v-9.6c0-4.2,3.5-7.6,7.7-7.6h19.4l-3.1-9.5c-0.5-1.4,0.3-3.1,1.8-3.6
		c1.4-0.5,3.1,0.3,3.6,1.8l4.2,13.2c0.3,0.9,0.1,1.8-0.4,2.5c-0.6,0.8-1.3,1.2-2.3,1.2h-23.3c-1.2,0-2,0.9-2,2v9.6
		C116.1,143.2,114.8,144.5,113.3,144.5"/>
	<path d="M113.3,144.5c-1.5,0-2.8-1.3-2.8-2.8v-9.6c0-4.2,3.5-7.6,7.7-7.6h19.4l-3.1-9.5c-0.5-1.4,0.3-3.1,1.8-3.6
		c1.4-0.5,3.1,0.3,3.6,1.8l4.2,13.2c0.3,0.9,0.1,1.8-0.4,2.5c-0.6,0.8-1.3,1.2-2.3,1.2h-23.3c-1.2,0-2,0.9-2,2v9.6
		C116.1,143.2,114.8,144.5,113.3,144.5z"/>
	<path d="M113.3,144.5c-1.5,0-2.8-1.3-2.8-2.8v-9.6c0-1.2-0.9-2-2-2H85.9c-0.9,0-1.7-0.4-2.2-1.2c-0.6-0.7-0.7-1.6-0.5-2.5l3.8-13.1
		c0.4-1.5,2-2.3,3.5-1.9c1.5,0.4,2.4,2,1.9,3.5l-2.7,9.5h18.9c4.2,0,7.7,3.5,7.7,7.6v9.6C116.1,143.2,114.8,144.5,113.3,144.5"/>
	<path d="M113.3,144.5c-1.5,0-2.8-1.3-2.8-2.8v-9.6c0-1.2-0.9-2-2-2H85.9c-0.9,0-1.7-0.4-2.2-1.2c-0.6-0.7-0.7-1.6-0.5-2.5l3.8-13.1
		c0.4-1.5,2-2.3,3.5-1.9c1.5,0.4,2.4,2,1.9,3.5l-2.7,9.5h18.9c4.2,0,7.7,3.5,7.7,7.6v9.6C116.1,143.2,114.8,144.5,113.3,144.5z"/>
	<path d="M116.2,88.3h-5.7c-1.5,0-2.8-1.3-2.8-2.8s1.3-2.8,2.8-2.8h5.7c1.5,0,2.8,1.3,2.8,2.8C119,87,117.7,88.3,116.2,88.3"/>
	<path d="M116.2,88.3h-5.7c-1.5,0-2.8-1.3-2.8-2.8s1.3-2.8,2.8-2.8h5.7c1.5,0,2.8,1.3,2.8,2.8C119,87,117.7,88.3,116.2,88.3z"/>
	<path d="M113.4,77.1c-11.7,0-19.7-9-19.7-22.4s7.9-22.4,19.7-22.4s19.7,9,19.7,22.4S125.1,77.1,113.4,77.1 M113.4,37.7
		c-10.4,0-14.1,9-14.1,16.8s3.7,16.8,14.1,16.8s14.1-9,14.1-16.8S123.8,37.7,113.4,37.7"/>
	<path d="M113.4,77.1c-11.7,0-19.7-9-19.7-22.4s7.9-22.4,19.7-22.4s19.7,9,19.7,22.4S125.1,77.1,113.4,77.1z M113.4,37.7
		c-10.4,0-14.1,9-14.1,16.8s3.7,16.8,14.1,16.8s14.1-9,14.1-16.8S123.8,37.7,113.4,37.7z"/>
	<path d="M113.4,110.8c-1.5,0-2.8-1.3-2.8-2.8V85.5c0-1.5,1.3-2.8,2.8-2.8s2.8,1.3,2.8,2.8v22.4
		C116.2,109.5,114.9,110.8,113.4,110.8"/>
	<path d="M113.4,110.8c-1.5,0-2.8-1.3-2.8-2.8V85.5c0-1.5,1.3-2.8,2.8-2.8s2.8,1.3,2.8,2.8v22.4
		C116.2,109.5,114.9,110.8,113.4,110.8z"/>
	<path d="M152.8,144.5H73.9c-4.6,0-7.2-2.1-8.6-3.9c-2.3-3.2-2.8-7.9-1.2-12.9l8.8-26.9c4.2-12,11.5-18.1,21.6-18.1h2
		c1,0,1.9,0.5,2.4,1.3l14.4,23.5l14.5-23.5c0.5-0.9,1.4-1.3,2.4-1.3h2c10,0,17.2,6.1,21.5,18l8.8,26.9c1.6,5,1.2,9.7-1.2,12.9
		C160,142.4,157.5,144.5,152.8,144.5 M94.4,88.3c-7.6,0-12.7,4.5-16.2,14.2l-8.7,26.9c-1,3.2-0.9,6.2,0.4,7.8c0.9,1.2,2.1,1.6,4,1.6
		h78.8c1.8,0,3.2-0.6,4-1.6c1.3-1.6,1.3-4.7,0.4-7.9l-8.7-26.9c-3.5-9.6-8.6-14.1-16.2-14.1h-0.4l-13.6,22.1
		c-0.9,1.7-2.8,2.8-4.9,2.8l0,0c-2.1,0-3.9-1.2-5-3L94.9,88.3H94.4z"/>
	<path d="M152.8,144.5H73.9c-4.6,0-7.2-2.1-8.6-3.9c-2.3-3.2-2.8-7.9-1.2-12.9l8.8-26.9c4.2-12,11.5-18.1,21.6-18.1h2
		c1,0,1.9,0.5,2.4,1.3l14.4,23.5l14.5-23.5c0.5-0.9,1.4-1.3,2.4-1.3h2c10,0,17.2,6.1,21.5,18l8.8,26.9c1.6,5,1.2,9.7-1.2,12.9
		C160,142.4,157.5,144.5,152.8,144.5z M94.4,88.3c-7.6,0-12.7,4.5-16.2,14.2l-8.7,26.9c-1,3.2-0.9,6.2,0.4,7.8
		c0.9,1.2,2.1,1.6,4,1.6h78.8c1.8,0,3.2-0.6,4-1.6c1.3-1.6,1.3-4.7,0.4-7.9l-8.7-26.9c-3.5-9.6-8.6-14.1-16.2-14.1h-0.4l-13.6,22.1
		c-0.9,1.7-2.8,2.8-4.9,2.8l0,0c-2.1,0-3.9-1.2-5-3L94.9,88.3H94.4z"/>
</g>
</svg>
