<?xml version="1.0" encoding="utf-8"?>
<!-- Generator: Adobe Illustrator 23.0.0, SVG Export Plug-In . SVG Version: 6.00 Build 0)  -->
<svg version="1.1" id="Layer_1" xmlns="http://www.w3.org/2000/svg" xmlns:xlink="http://www.w3.org/1999/xlink" x="0px" y="0px"
	 viewBox="0 0 226.8 226.8" style="enable-background:new 0 0 226.8 226.8;" xml:space="preserve">
<g>
	<g>
		<path d="M64.4,135.7c9,0,16.4-7.4,16.4-16.4s-7.4-16.4-16.4-16.4S48,110.3,48,119.3C48,128.4,55.4,135.7,64.4,135.7 M64.4,108.3
			c6.2,0,11.1,4.9,11.1,11.1s-4.9,11.1-11.1,11.1s-11.1-4.9-11.1-11.1S58.2,108.3,64.4,108.3"/>
	</g>
	<g>
		<path d="M198.9,66.4c8.6,0,15.6-7,15.6-15.6s-7-15.6-15.6-15.6s-15.6,7-15.6,15.6S190.3,66.4,198.9,66.4 M198.9,40.6
			c5.7,0,10.3,4.5,10.3,10.3s-4.5,10.3-10.3,10.3s-10.3-4.5-10.3-10.3S193.1,40.6,198.9,40.6"/>
	</g>
	<g>
		<path d="M226.8,50.8c0-15.6-12.7-27.9-27.9-27.9c-3.7,0-7.4,0.8-10.7,2.1l-34-22.6l-89,41L0,0.4v181.7l64,42.6l89-41l64.4,42.6
			V76.3C222.7,68.1,226.8,59.5,226.8,50.8 M221.4,50.8c0,15.2-16.8,34.4-22.6,40.6c-5.7-6.2-22.6-25.4-22.6-40.6
			c0-12.7,10.3-22.6,22.6-22.6C211.2,28.3,221.4,38.5,221.4,50.8 M170.6,50.8c0,12.7,9.8,27.5,17.6,36.5l-32-14.8V10.3l26.7,17.6
			C175.5,33.2,170.6,41.4,170.6,50.8 M90.6,206.3c-11.5,3.3-21.7-12.7-23.8-16v-21.7l65.2-29.9c4.9-2.5,8.2-7.4,8.2-13.1
			c0-4.9-2.5-9.4-6.6-11.9c-4.1-2.5-9.4-2.9-13.5-0.8l-6.6,2.9c-2.9,1.2-6.2,1.2-8.6-0.4c-2.5-1.6-4.1-4.5-4.1-7.8
			c0-3.7,2.1-6.6,5.3-8.2l45.1-20.5v100.1L90.6,206.3z M43.5,35.7l18,11.9v11.5C59.1,57,57,56.2,55,55.4c-2.5-0.8-4.5-1.6-7-4.5
			C43.5,46.7,43.1,39.8,43.5,35.7 M150.9,73l-47.2,21.7c-4.9,2.5-8.2,7.4-8.2,13.1c0,4.9,2.5,9.4,6.6,11.9c4.1,2.5,9.4,2.9,13.5,0.8
			l6.6-2.9c2.9-1.2,6.2-1.2,8.6,0.4s4.1,4.5,4.1,7.8c0,3.7-2.1,6.6-5.3,8.2l-54.5,25c8.2-9.8,19.3-25.8,19.3-39.8
			c0-15.6-11.9-28.3-27.1-29.5V73.4c2.1,1.2,4.1,1.6,6.6,1.6c1.2,0,2.9,0,4.1-0.4c6.2-1.6,13.5-7,13.5-12.3c0-1.2,0.8-1.6,4.9-2.9
			c2.9-0.8,7-2.1,9.4-5.3c2.5-2.9,3.7-8.2,4.9-13.9c1.2-5.3,2.9-11.5,5.3-14.8l34.9-16C150.9,9.4,150.9,73,150.9,73z M105.4,39
			c-1.2,4.9-2.5,9.4-4.1,11.9c-1.6,2.1-4.1,2.9-7,3.3c-3.7,1.2-8.6,2.5-8.6,7.8c0,1.6-4.1,5.7-9.4,7.4c-4.1,1.2-7.4,0-9.4-3.3V48
			l41-18.9C107,32.4,106.2,35.7,105.4,39 M64.4,94.7c13.5,0,24.6,11.1,24.6,24.6c0,16.4-18.5,37.3-24.6,43.9
			c-6.2-6.2-24.6-27.1-24.6-43.9C39.8,105.8,50.8,94.7,64.4,94.7 M66.8,199.7c3.3,4.1,8.2,9,13.9,11.1l-13.9,6.6V199.7z M38.5,32.4
			c-0.4,4.5-1.2,15.2,5.3,22.6c3.7,3.7,6.6,4.9,9,5.7c2.9,1.2,5.3,2.1,8.6,7.4v22.1c-15.2,1.2-27.1,14.4-27.1,29.5
			c0,19.7,22.6,43.5,27.1,48.4v21.7l-11.1,5.7L39,189c-1.6-3.3-8.6-16-13.1-20.9c-4.5-4.9-14.8-3.3-20.5-1.6V10.7L38.5,32.4z
			 M5.3,171.8c6.2-1.6,14.4-2.9,16.8,0c4.5,4.9,12.7,20.5,12.7,20.5l0.4,0.4l15.2,9l11.1-5.7v20.9L5.3,179.2V171.8z M212.4,198.5
			c-3.7,0-9.8-0.4-12.7-3.3c-1.6-1.6-1.6-2.9-1.6-5.3c-0.4-3.7-0.8-9-7-17.6c-2.1-2.5-3.3-4.5-4.5-6.2c-3.7-4.9-3.7-4.9,0-9.8
			l1.2-1.6c4.9-6.6,18-2.5,24.2,0v43.9H212.4z M212.4,148.9c-7-2.9-21.7-7-28.7,2.5l-1.2,1.6c-5.7,7.8-5.7,9,0,16.4
			c1.2,1.6,2.9,3.7,4.5,6.2c5.3,7.4,5.7,11.5,5.7,14.8c0.4,2.9,0.4,5.3,3.3,8.6c3.7,4.1,10.7,4.9,15.2,4.9c0.4,0,0.8,0,1.2,0v12.7
			l-56.2-37.3V78.7L197.7,98l0,0c0.4,0,0.8,0.4,1.2,0.4c0.8,0,1.2-0.4,2.1-0.8c0.4-0.4,6.2-5.7,11.9-13.5v64.8H212.4z"/>
	</g>
</g>
</svg>
