<?xml version="1.0" encoding="utf-8"?>
<!-- Generator: Adobe Illustrator 23.0.0, SVG Export Plug-In . SVG Version: 6.00 Build 0)  -->
<svg version="1.1" id="Layer_1" xmlns="http://www.w3.org/2000/svg" xmlns:xlink="http://www.w3.org/1999/xlink" x="0px" y="0px"
	 viewBox="0 0 226.8 226.8" style="enable-background:new 0 0 226.8 226.8;" xml:space="preserve">
<g>
	<path d="M35.7,33.4c1.6,0,2.5-1.2,2.5-2.5S36.9,28,35.7,28H16.8v33.6h33.6V40.3l7-7c1.2-1.2,1.2-2.9,0-3.7c-1.2-1.2-2.9-1.2-3.7,0
		L38.5,44.8l-7-7c-0.8-0.8-2.5-0.8-3.7,0c-1.2,1.2-1.2,2.9,0,3.7l10.2,10.2l6.5-6.5v10.6H22.2V33.4H35.7z"/>
	<path d="M16.8,112.8h33.6V91.5l7-7c1.2-1.2,1.2-2.9,0-3.7c-1.2-1.2-2.9-1.2-3.7,0L38.5,96L32,89.4c-1.2-1.2-2.9-1.2-3.7,0
		c-0.8,1.2-1.2,2.9,0,3.7l10.2,10.2l6.5-6.5v10.6H22.2V84.5h13.5c1.6,0,2.9-1.2,2.9-2.5c0-1.6-1.2-2.9-2.9-2.9H16.8V112.8z"/>
	<path d="M16.8,164.3h33.6v-21.3l7-7c1.2-1.2,1.2-2.9,0-3.7c-1.2-1.2-2.9-1.2-3.7,0l-15.1,15.1L32,141c-1.2-1.2-2.9-1.2-3.7,0
		c-0.8,1.2-1.2,2.9,0,3.7l10.2,10.2l6.5-6.5V159H22.2v-22.9h13.5c1.6,0,2.9-1.2,2.9-2.9c0-1.6-1.2-2.5-2.9-2.5H16.8V164.3z"/>
	<rect x="64.7" y="144.7" width="67.1" height="5.3"/>
	<rect x="28.7" y="184.4" width="103.2" height="5.3"/>
	<rect x="64.7" y="93.5" width="25.4" height="5.3"/>
	<rect x="64.7" y="42.4" width="40.9" height="5.3"/>
	<path d="M226.4,82.9h-66.3v-45l-27.4-27.4H0.1v188.7c0,9.4,7.8,17.2,17.2,17.2H172c9.4,0,17.2-7.8,17.2-17.2v-43.8h-29.1v-36.4
		h-5.3v80.2c0,4.5,1.6,8.6,4.9,11.9H17.2c-6.5,0-11.9-5.3-11.9-11.9V15.8H129v25.8h25.8v41.3h-25l-20.1,10.6h-9.8v5.3h9.8l20.1,10.6
		h79v3.7h-8.6v5.3h14.3v-9h12.3V82.9H226.4z M183.8,160.7v38.9c0,6.5-5.3,11.9-11.9,11.9s-11.9-5.3-11.9-11.9v-38.9H183.8z
		 M134.3,19.4l16.8,16.8h-16.8V19.4z M127.8,89.8v12.7l-11.9-6.1L127.8,89.8z M133.1,88.2h75.7v16h-75.7V88.2z M221.1,104.2h-7v-16
		h7V104.2z"/>
</g>
</svg>
