<?xml version="1.0" encoding="utf-8"?>
<!-- Generator: Adobe Illustrator 23.0.0, SVG Export Plug-In . SVG Version: 6.00 Build 0)  -->
<svg version="1.1" id="Layer_1" xmlns="http://www.w3.org/2000/svg" xmlns:xlink="http://www.w3.org/1999/xlink" x="0px" y="0px"
	 viewBox="0 0 226.8 226.8" style="enable-background:new 0 0 226.8 226.8;" xml:space="preserve">
<g>
	<path d="M45.9,187c-2.7,0-5.1,0-7.8,0c-0.3,0-0.6-0.3-1.2-0.3c-17.7-2.4-31.3-14.7-35.5-32.2c-0.6-2.4-1.2-4.8-1.5-7.5
		c0-1.2,0-2.7,0-3.9c0-0.6,0.3-1.5,0.3-2.1c0.6-7.5,3.3-14.4,7.5-20.5c1.8-2.7,4.2-4.8,6.3-7.5C25.8,97,37.5,81.1,49.2,64.9
		c3.3-4.5,7.8-7.8,12.9-9.9c2.1-0.9,3.6-2.1,4.8-3.9c2.7-4.2,6.3-7.8,10.8-9.3c2.7-0.9,5.4-1.5,8.1-2.1c1.2,0,2.4,0,3.3,0
		c3.6,1.2,7.5,2.1,10.8,3.6c8.1,4.2,10.5,10.8,7.8,19.2c-0.6,1.8-1.2,3.3-1.8,5.1c-0.6,1.8,0.3,2.7,2.1,2.1c3.3-0.9,6.9-0.9,10.2,0
		c0.6,0.3,1.2,0,2.4,0.3c-0.3-1.8-0.6-3.3-0.9-4.5c-0.6-3.3-2.1-6.9-2.1-10.2c0-5.4,3.6-9.3,8.4-11.7c3.3-1.8,7.2-2.7,10.8-3.9
		c1.2,0,2.7,0,3.9,0c8.7,1.2,15.3,5.7,20.2,13.2c0.6,0.9,1.8,1.5,3,1.8c5.4,2.4,9.9,5.4,13.2,10.2c7.8,10.8,15.6,21.7,23.8,32.5
		c5.4,7.2,10.8,14.1,16.2,21.4c3.3,4.2,5.7,8.7,7.2,13.8c0.9,2.7,1.2,5.1,2.1,7.8c0,3,0,6.3,0,9.3c-0.3,0.6-0.3,0.9-0.3,1.5
		c-2.4,14.7-10.2,25.6-23.5,31.9c-4.2,2.1-9,2.7-13.5,4.2c-3,0-6,0-9,0c-0.6,0-0.9-0.3-1.5-0.3c-16.8-2.1-31.3-15-35.2-31.6
		c-0.6-3-1.5-6-2.4-9c-0.3-0.9-0.9-1.8-1.8-2.1c-17.7-9.9-35.2-9.6-52.9,0c-0.6,0.3-1.2,0.9-1.5,1.5c-0.9,2.4-1.8,5.1-2.4,7.8
		c-3,13.5-10.8,23.8-23.2,29.5C55.5,184.9,50.4,185.8,45.9,187z M151.5,144.6c-0.3,18,14.7,33.7,33.1,34c19.2,0,33.7-14.4,34.3-32.5
		c0.6-19.2-14.4-34.9-33.4-34.9C167.1,111.2,151.8,125.9,151.5,144.6z M42.3,111.2c-19.2,0-34,15.9-33.7,34.6
		c0.3,17.7,15.3,32.8,33.7,32.8c18,0,33.4-15.3,33.4-33.4C76,126.5,60.7,111.2,42.3,111.2z M195.7,104c-0.3-0.3-0.3-0.6-0.3-0.9
		c-8.4-11.7-16.8-23.2-25.6-34.9c-0.3-0.6-0.9-1.2-1.5-1.5c-10.8-8.7-27.4-8.1-37,1.8c-1.2,1.2-1.8,2.7-2.7,4.2
		c-0.3,0.3,0,1.2,0.3,1.8c0.6,1.2,1.5,2.4,2.1,3.6c4.5,11.4,9.3,22.9,13.8,34.3c1.5,3.9,3,7.8,2.7,12.3c0,0.3,0.3,0.6,0.3,0.9
		C160.5,106.4,173.1,101,195.7,104z M98.8,73.6c0.3-0.3,0.6-0.3,0.6-0.6c-1.5-1.8-2.7-3.9-4.5-5.7c-6-5.4-13.5-7.5-21.7-6.6
		c-6.9,0.9-12.9,3.6-17.1,9.6c-7.2,10.2-15,20.5-22.6,30.7c-0.6,0.9-1.2,1.8-2.1,3c21.1-3.9,37,3.3,48.1,21.1c0.6-3,0.3-6,1.5-8.7
		c4.8-12.9,10.2-25.6,15.3-38.5C97,76.6,97.9,75.1,98.8,73.6z M134.6,110.9c0-0.3,0-0.6,0-0.6c-3.9-9.6-7.5-18.9-11.4-28.6
		c-0.3-0.6-0.9-1.2-1.5-1.8c-5.4-3.3-10.5-3.3-15.9-0.3c-0.9,0.6-1.8,1.5-2.1,2.4c-1.8,3.9-3.3,8.1-5.1,12.3
		c-2.1,5.4-4.2,10.8-6.6,16.5C106.7,105.8,120.8,105.8,134.6,110.9z M128.6,117.8c-0.6,4.2-1.2,8.1-1.8,11.7c3.6,1.2,7.8,2.7,12,3.9
		c0-3.6,0-6.6,0-9.9c0-0.6-0.3-1.5-0.6-1.5C134.9,120.5,131.6,119,128.6,117.8z M88.3,133.4c4.2-1.5,8.4-2.7,11.7-3.9
		c-0.6-3.9-0.9-7.8-1.5-11.7c-3,1.2-6,2.7-9.3,3.9c-0.6,0.3-0.9,0.9-0.9,1.5C88.3,126.5,88.3,129.8,88.3,133.4z M127.4,60.4
		c6.6-5.1,13.8-8.1,22.3-8.4c-3.6-4.2-13.5-5.7-20.2-0.6C126.2,54.3,125.6,55.8,127.4,60.4z M99.8,60.4c2.1-4.2,1.8-6-1.5-8.4
		c-1.8-1.5-4.2-2.7-6.3-3c-5.1-1.2-9.9-0.6-14.4,3.3C86.2,52.5,93.1,55.2,99.8,60.4z M113.6,128c3.3,0,6.3-2.7,6.3-6.3
		c0-3.3-3-6.3-6.3-6.3c-3.3,0-6.3,3-6.3,6.3C107.6,125,110.3,128,113.6,128z"/>
	<path d="M189.4,124.1c0,1.8-0.9,3.3-3.3,3.6c-1.5,0.3-2.7,0.3-4.2,0.6c-4.8,0.9-8.7,3.6-11.4,8.1c-0.3,0.6-0.6,1.2-0.9,1.8
		c-1.5,2.4-3.6,3.3-5.7,2.1c-2.1-1.2-2.7-3.6-1.5-6c2.7-5.7,6.9-10.2,12.9-12.3c2.7-1.2,6-1.5,9-2.1
		C187.3,119.3,189.4,121.1,189.4,124.1z"/>
	<path d="M183.4,163.5c-0.3,3.9-3,5.7-6,4.5c-6-2.7-10.2-6.9-12.9-12.9c-0.9-2.1-0.3-4.2,1.8-5.4c2.1-1.2,4.2-0.9,5.4,1.5
		c2.4,4.2,5.4,7.2,9.6,9.6C182.5,161.4,183.1,162.9,183.4,163.5z"/>
	<path d="M41.1,119.6c3,0,4.8,1.5,5.1,3.6c0.3,2.4-1.2,4.2-3.9,4.5c-4.5,0.6-8.7,1.5-11.7,4.8c-1.2,1.5-2.4,3-3.6,4.8
		c-1.8,3-3.9,3.9-6.3,2.7c-2.1-1.2-2.7-3.6-1.2-6.3C24.3,125,31.5,120.2,41.1,119.6z"/>
	<path d="M40.2,163.2c0,3.9-3,6-5.7,4.8c-6-2.7-10.2-6.9-12.9-12.9c-0.9-2.1,0-4.5,1.8-5.4s3.9-0.3,5.4,1.5c1.8,2.4,3.6,4.8,5.4,6.9
		c0.9,0.9,2.4,1.5,3.6,2.4S39.9,162.6,40.2,163.2z"/>
</g>
</svg>
