<?xml version="1.0" encoding="utf-8"?>
<!-- Generator: Adobe Illustrator 23.0.0, SVG Export Plug-In . SVG Version: 6.00 Build 0)  -->
<svg version="1.1" id="Layer_1" xmlns="http://www.w3.org/2000/svg" xmlns:xlink="http://www.w3.org/1999/xlink" x="0px" y="0px"
	 viewBox="0 0 226.8 226.8" style="enable-background:new 0 0 226.8 226.8;" xml:space="preserve">
<style type="text/css">
	.st0{clip-path:url(#SVGID_2_);}
	.st1{clip-path:url(#SVGID_4_);}
	.st2{clip-path:url(#SVGID_6_);}
	.st3{clip-path:url(#SVGID_8_);}
	.st4{clip-path:url(#SVGID_10_);}
</style>
<g>
	<g>
		<defs>
			<rect id="SVGID_1_" x="65.8" y="0" width="95.2" height="226.8"/>
		</defs>
		<clipPath id="SVGID_2_">
			<use xlink:href="#SVGID_1_"  style="overflow:visible;"/>
		</clipPath>
		<path class="st0" d="M119.6,135.5h-12.4c-22.8,0-41.3-15-41.3-37.8v-60C65.9,15,84.4,0,107.2,0h12.4C142.4,0,161,15,161,37.8v60
			C161,120.5,142.4,135.5,119.6,135.5 M107.1,4.2C86.6,4.2,70,17.3,70,37.8v60c0,20.5,16.7,33.6,37.2,33.6h12.4
			c20.5,0,37.2-13.1,37.2-33.6v-60c0-20.5-16.7-33.6-37.2-33.6H107.1z"/>
	</g>
	<g>
		<defs>
			<rect id="SVGID_3_" x="65.8" y="0" width="95.2" height="226.8"/>
		</defs>
		<clipPath id="SVGID_4_">
			<use xlink:href="#SVGID_3_"  style="overflow:visible;"/>
		</clipPath>
		<path class="st1" d="M113.4,54.9c-4.2,0-7.7-3.5-7.7-7.7V31.9c0-4.2,3.5-7.7,7.7-7.7c4.2,0,7.7,3.5,7.7,7.7v15.4
			C121,51.5,117.6,54.9,113.4,54.9 M113.4,28.4c-1.9,0-3.5,1.5-3.5,3.5v15.4c0,1.9,1.5,3.5,3.5,3.5c1.9,0,3.5-1.5,3.5-3.5V31.9
			C116.8,29.9,115.3,28.4,113.4,28.4"/>
	</g>
	<g>
		<defs>
			<rect id="SVGID_5_" x="65.8" y="0" width="95.2" height="226.8"/>
		</defs>
		<clipPath id="SVGID_6_">
			<use xlink:href="#SVGID_5_"  style="overflow:visible;"/>
		</clipPath>
		<path class="st2" d="M141.3,148.8c-1,1.4-2,2.7-3,3.9c-1,1.3-2.1,2.6-3.2,3.9c-2.1,2.6-4.3,5-6.5,7.5c-2.2,2.4-4.5,4.9-6.7,7.3
			c-2.3,2.4-4.6,4.8-6.9,7.1l0,0c-0.9,1-2.4,1-3.3,0l0,0l-3.5-3.5l-3.5-3.6c-2.3-2.4-4.5-4.8-6.7-7.3c-2.2-2.4-4.3-4.9-6.5-7.5
			c-1.1-1.2-2.1-2.6-3.2-3.9c-1-1.3-2-2.6-3-4c1.4,1,2.7,2,3.9,3c1.3,1,2.6,2.1,3.9,3.2c2.6,2.1,5,4.3,7.5,6.5
			c2.4,2.2,4.9,4.5,7.3,6.7l3.6,3.5l3.5,3.5h-3.4c2.3-2.3,4.7-4.6,7.1-6.9c2.4-2.3,4.8-4.5,7.3-6.7c2.4-2.2,4.9-4.3,7.5-6.5
			c1.2-1.1,2.6-2.1,3.9-3.2C138.7,150.7,139.9,149.7,141.3,148.8"/>
	</g>
	<g>
		<defs>
			<rect id="SVGID_7_" x="65.8" y="0" width="95.2" height="226.8"/>
		</defs>
		<clipPath id="SVGID_8_">
			<use xlink:href="#SVGID_7_"  style="overflow:visible;"/>
		</clipPath>
		<path class="st3" d="M141.3,173.2c-2,2.6-4.2,5.1-6.4,7.6c-2.1,2.5-4.4,4.9-6.6,7.4c-2.3,2.4-4.5,4.8-6.8,7.2
			c-2.3,2.4-4.6,4.7-6.9,7c-0.7,0.7-1.8,0.7-2.5,0l0,0c-2.3-2.3-4.6-4.7-6.9-7c-2.3-2.4-4.5-4.8-6.8-7.2c-2.2-2.4-4.5-4.9-6.6-7.4
			c-2.1-2.5-4.3-5-6.4-7.6c2.6,2,5.1,4.2,7.6,6.4c2.5,2.1,4.9,4.4,7.4,6.6c2.4,2.2,4.8,4.5,7.2,6.8c2.4,2.3,4.7,4.6,7,6.9h-2.5
			c2.3-2.3,4.7-4.6,7-6.9c2.4-2.3,4.8-4.5,7.2-6.8c2.4-2.2,4.9-4.5,7.4-6.6C136.2,177.4,138.7,175.3,141.3,173.2"/>
	</g>
	<g>
		<defs>
			<rect id="SVGID_9_" x="65.8" y="0" width="95.2" height="226.8"/>
		</defs>
		<clipPath id="SVGID_10_">
			<use xlink:href="#SVGID_9_"  style="overflow:visible;"/>
		</clipPath>
		<path class="st4" d="M141.3,197.6c-2.1,2.5-4.3,4.9-6.5,7.4c-2.2,2.4-4.5,4.8-6.7,7.2c-2.3,2.4-4.6,4.8-6.8,7.1l-7,7.1
			c-0.5,0.5-1.2,0.5-1.7,0l0,0l-7-7c-2.3-2.4-4.6-4.7-6.8-7.1c-2.3-2.4-4.5-4.8-6.7-7.2c-2.2-2.4-4.4-4.9-6.5-7.4
			c2.5,2.1,4.9,4.3,7.4,6.5c2.4,2.2,4.8,4.5,7.2,6.7s4.8,4.6,7.1,6.8l7,7h-1.7l7-7c2.4-2.3,4.7-4.6,7.1-6.8c2.4-2.3,4.8-4.5,7.2-6.7
			C136.3,202,138.8,199.8,141.3,197.6"/>
	</g>
</g>
</svg>
