<?xml version="1.0" encoding="utf-8"?>
<!-- Generator: Adobe Illustrator 23.0.0, SVG Export Plug-In . SVG Version: 6.00 Build 0)  -->
<svg version="1.1" id="Layer_1" xmlns="http://www.w3.org/2000/svg" xmlns:xlink="http://www.w3.org/1999/xlink" x="0px" y="0px"
	 viewBox="0 0 226.8 226.8" style="enable-background:new 0 0 226.8 226.8;" xml:space="preserve">
<g>
	<path d="M114.2,173.6c-1.9,0-3.4-1.5-3.4-3.4v-31.4c0-1.9,1.5-3.4,3.4-3.4c1.9,0,3.4,1.5,3.4,3.4v31.4
		C117.6,172.1,116,173.6,114.2,173.6"/>
	<path d="M114.2,173.6c-1.9,0-3.4-1.5-3.4-3.4v-31.4c0-1.9,1.5-3.4,3.4-3.4c1.9,0,3.4,1.5,3.4,3.4v31.4
		C117.6,172.1,116,173.6,114.2,173.6z"/>
	<path d="M137.7,173.6c-1.9,0-3.4-1.5-3.4-3.4V88c0-0.9,0.4-1.7,1-2.4c0.2-0.2,21.5-21.5,26.7-44.7c3.8-16.8,6.4-27.2,6.4-27.2
		c0.3-1.6,0-3.3-1-4.6c-0.8-1.1-2-1.9-3.2-2c-2.1-0.4-3.5-0.3-4.5,0.3c-1.6,1-2.4,3.6-2.8,5.5l-3.8,16.1
		c-6.7,27.3-17.3,35.5-39,35.5h-6.7c-17.3,0-30.3,11.6-30.3,26.9v50.8h3.4c1.9,0,3.4,1.5,3.4,3.4c0,1.9-1.5,3.4-3.4,3.4h-6.7
		c-1.9,0-3.4-1.5-3.4-3.4V91.3c0-19.2,15.9-33.6,37-33.6h6.7c16.2,0,25.7-3,32.5-30.3l3.8-15.9c0.9-4.5,2.8-7.8,5.7-9.7
		c2.6-1.7,5.7-2.1,9.4-1.3c2.9,0.4,5.7,2.1,7.5,4.7c2,2.8,2.7,6.4,2.1,9.8c0,0.1-2.7,10.6-6.5,27.4c-5,22.5-23,42.3-27.5,47v80.9
		C141.1,172.1,139.6,173.6,137.7,173.6"/>
	<path d="M137.7,173.6c-1.9,0-3.4-1.5-3.4-3.4V88c0-0.9,0.4-1.7,1-2.4c0.2-0.2,21.5-21.5,26.7-44.7c3.8-16.8,6.4-27.2,6.4-27.2
		c0.3-1.6,0-3.3-1-4.6c-0.8-1.1-2-1.9-3.2-2c-2.1-0.4-3.5-0.3-4.5,0.3c-1.6,1-2.4,3.6-2.8,5.5l-3.8,16.1
		c-6.7,27.3-17.3,35.5-39,35.5h-6.7c-17.3,0-30.3,11.6-30.3,26.9v50.8h3.4c1.9,0,3.4,1.5,3.4,3.4c0,1.9-1.5,3.4-3.4,3.4h-6.7
		c-1.9,0-3.4-1.5-3.4-3.4V91.3c0-19.2,15.9-33.6,37-33.6h6.7c16.2,0,25.7-3,32.5-30.3l3.8-15.9c0.9-4.5,2.8-7.8,5.7-9.7
		c2.6-1.7,5.7-2.1,9.4-1.3c2.9,0.4,5.7,2.1,7.5,4.7c2,2.8,2.7,6.4,2.1,9.8c0,0.1-2.7,10.6-6.5,27.4c-5,22.5-23,42.3-27.5,47v80.9
		C141.1,172.1,139.6,173.6,137.7,173.6z"/>
	<path d="M90.6,173.6c-1.9,0-3.4-1.5-3.4-3.4v-62.1c-1.9,0-3.4-1.5-3.4-3.4c0-1.9,1.5-3.4,3.4-3.4h3.4c1.9,0,3.4,1.5,3.4,3.4v65.4
		C94,172.1,92.5,173.6,90.6,173.6"/>
	<path d="M90.6,173.6c-1.9,0-3.4-1.5-3.4-3.4v-62.1c-1.9,0-3.4-1.5-3.4-3.4c0-1.9,1.5-3.4,3.4-3.4h3.4c1.9,0,3.4,1.5,3.4,3.4v65.4
		C94,172.1,92.5,173.6,90.6,173.6z"/>
	<path d="M114.2,50.9c-12.1,0-20.2-9.5-20.2-23.5s8.1-23.5,20.2-23.5s20.2,9.5,20.2,23.5S126.2,50.9,114.2,50.9 M114.2,10.6
		c-9.9,0-13.5,8.7-13.5,16.8s3.5,16.8,13.5,16.8s13.5-8.7,13.5-16.8C127.6,19.3,124.1,10.6,114.2,10.6"/>
	<path d="M114.2,50.9c-12.1,0-20.2-9.5-20.2-23.5s8.1-23.5,20.2-23.5s20.2,9.5,20.2,23.5S126.2,50.9,114.2,50.9z M114.2,10.6
		c-9.9,0-13.5,8.7-13.5,16.8s3.5,16.8,13.5,16.8s13.5-8.7,13.5-16.8C127.6,19.3,124.1,10.6,114.2,10.6z"/>
	<path d="M48.3,106.9c-1.9,0-3.4-1.5-3.4-3.4v-51c0-1.9,1.5-3.4,3.4-3.4s3.4,1.5,3.4,3.4v51C51.6,105.4,50.1,106.9,48.3,106.9"/>
	<path d="M48.3,106.9c-1.9,0-3.4-1.5-3.4-3.4v-51c0-1.9,1.5-3.4,3.4-3.4s3.4,1.5,3.4,3.4v51C51.6,105.4,50.1,106.9,48.3,106.9z"/>
	<path d="M32.1,77.7c-1.9,0-3.4-1.5-3.4-3.4V55.9h-7.3c-1.3,0-2.5-0.8-3.1-2c-0.5-1.2-0.3-2.6,0.5-3.6l18.7-21.5
		c1.3-1.4,3.8-1.4,5,0l18.8,21.5c0.9,1,1.1,2.4,0.5,3.6c-0.5,1.2-1.7,2-3.1,2H45.6c-1.9,0-3.4-1.5-3.4-3.4s1.5-3.4,3.4-3.4h6
		l-11.3-13l-11.3,13h3.3c1.9,0,3.4,1.5,3.4,3.4v21.8C35.5,76.2,34,77.7,32.1,77.7"/>
	<path d="M32.1,77.7c-1.9,0-3.4-1.5-3.4-3.4V55.9h-7.3c-1.3,0-2.5-0.8-3.1-2c-0.5-1.2-0.3-2.6,0.5-3.6l18.7-21.5
		c1.3-1.4,3.8-1.4,5,0l18.8,21.5c0.9,1,1.1,2.4,0.5,3.6c-0.5,1.2-1.7,2-3.1,2H45.6c-1.9,0-3.4-1.5-3.4-3.4s1.5-3.4,3.4-3.4h6
		l-11.3-13l-11.3,13h3.3c1.9,0,3.4,1.5,3.4,3.4v21.8C35.5,76.2,34,77.7,32.1,77.7z"/>
	<path d="M32.2,96.2c-1.9,0-3.4-1.5-3.4-3.4v-4.4c0-1.9,1.5-3.4,3.4-3.4s3.4,1.5,3.4,3.4v4.4C35.5,94.7,34,96.2,32.2,96.2"/>
	<path d="M32.2,96.2c-1.9,0-3.4-1.5-3.4-3.4v-4.4c0-1.9,1.5-3.4,3.4-3.4s3.4,1.5,3.4,3.4v4.4C35.5,94.7,34,96.2,32.2,96.2z"/>
	<path d="M194.8,117.5c-1.9,0-3.4-1.5-3.4-3.4V88.2c0-1.9,1.5-3.4,3.4-3.4c1.9,0,3.4,1.5,3.4,3.4v25.9
		C198.1,116,196.6,117.5,194.8,117.5"/>
	<path d="M194.8,117.5c-1.9,0-3.4-1.5-3.4-3.4V88.2c0-1.9,1.5-3.4,3.4-3.4c1.9,0,3.4,1.5,3.4,3.4v25.9
		C198.1,116,196.6,117.5,194.8,117.5z"/>
	<path d="M178.7,134.5c-1.9,0-3.4-1.5-3.4-3.4V91.6H168c-1.3,0-2.5-0.8-3.1-2s-0.3-2.6,0.5-3.6l18.8-21.5c1.3-1.4,3.8-1.4,5.1,0
		L208,86c0.9,1,1.1,2.4,0.5,3.6c-0.5,1.2-1.7,2-3.1,2h-13.4c-1.9,0-3.4-1.5-3.4-3.4c0-1.9,1.5-3.4,3.4-3.4h6l-11.4-13l-11.3,13h3.3
		c1.9,0,3.4,1.5,3.4,3.4v42.9C182,133,180.5,134.5,178.7,134.5"/>
	<path d="M178.7,134.5c-1.9,0-3.4-1.5-3.4-3.4V91.6H168c-1.3,0-2.5-0.8-3.1-2s-0.3-2.6,0.5-3.6l18.8-21.5c1.3-1.4,3.8-1.4,5.1,0
		L208,86c0.9,1,1.1,2.4,0.5,3.6c-0.5,1.2-1.7,2-3.1,2h-13.4c-1.9,0-3.4-1.5-3.4-3.4c0-1.9,1.5-3.4,3.4-3.4h6l-11.4-13l-11.3,13h3.3
		c1.9,0,3.4,1.5,3.4,3.4v42.9C182,133,180.5,134.5,178.7,134.5z"/>
	<path d="M114.6,213.7c-6.4,0-62.9-0.4-62.9-14.5c0-5.4,6.3-8.6,21.6-11.2c1.9-0.3,3.6,0.9,3.9,2.8c0.3,1.8-0.9,3.6-2.8,3.9
		c-11.1,1.9-14.6,3.8-15.6,4.6c3.4,2.9,22.1,7.8,55.9,7.8c33.7,0,52.4-4.9,55.8-7.8c-1.1-0.9-4.9-3-16-4.9c-1.8-0.3-3.1-2.1-2.8-3.9
		c0.3-1.8,2.1-3.1,3.9-2.7c15.2,2.6,22,6.2,22,11.5C177.5,213.3,121,213.7,114.6,213.7"/>
	<path d="M114.6,213.7c-6.4,0-62.9-0.4-62.9-14.5c0-5.4,6.3-8.6,21.6-11.2c1.9-0.3,3.6,0.9,3.9,2.8c0.3,1.8-0.9,3.6-2.8,3.9
		c-11.1,1.9-14.6,3.8-15.6,4.6c3.4,2.9,22.1,7.8,55.9,7.8c33.7,0,52.4-4.9,55.8-7.8c-1.1-0.9-4.9-3-16-4.9c-1.8-0.3-3.1-2.1-2.8-3.9
		c0.3-1.8,2.1-3.1,3.9-2.7c15.2,2.6,22,6.2,22,11.5C177.5,213.3,121,213.7,114.6,213.7z"/>
	<path d="M114.6,226.7c-6.4,0-62.9-0.4-62.9-14.5v-13c0-1.9,1.5-3.4,3.4-3.4s3.4,1.5,3.4,3.4v12.7c2.3,2.8,21.1,8.1,56.2,8.1
		s53.9-5.3,56.2-8.1v-12.7c0-1.9,1.5-3.4,3.4-3.4c1.9,0,3.4,1.5,3.4,3.4v13.1C177.5,226.3,121,226.7,114.6,226.7"/>
	<path d="M114.6,226.7c-6.4,0-62.9-0.4-62.9-14.5v-13c0-1.9,1.5-3.4,3.4-3.4s3.4,1.5,3.4,3.4v12.7c2.3,2.8,21.1,8.1,56.2,8.1
		s53.9-5.3,56.2-8.1v-12.7c0-1.9,1.5-3.4,3.4-3.4c1.9,0,3.4,1.5,3.4,3.4v13.1C177.5,226.3,121,226.7,114.6,226.7z"/>
	<path d="M114.6,200.7c-10.4,0-44.3-0.8-44.3-11V177c0-1.9,1.5-3.4,3.4-3.4c1.9,0,3.4,1.5,3.4,3.4v12c2.5,1.9,15.5,5,37.6,5
		s35.1-3.2,37.6-5v-12c0-1.9,1.5-3.4,3.4-3.4s3.4,1.5,3.4,3.4v12.7C158.9,192.2,155.7,200.7,114.6,200.7"/>
	<path d="M114.6,200.7c-10.4,0-44.3-0.8-44.3-11V177c0-1.9,1.5-3.4,3.4-3.4c1.9,0,3.4,1.5,3.4,3.4v12c2.5,1.9,15.5,5,37.6,5
		s35.1-3.2,37.6-5v-12c0-1.9,1.5-3.4,3.4-3.4s3.4,1.5,3.4,3.4v12.7C158.9,192.2,155.7,200.7,114.6,200.7z"/>
	<path d="M114.6,187.6c-7.4,0-44.3-0.6-44.3-11.7c0-4.8,6.2-6.8,8.2-7.5c1.7-0.6,3.7,0.3,4.3,2.1c0.6,1.7-0.4,3.7-2.1,4.3
		c-1.3,0.4-2.2,0.8-2.8,1.2c3.7,2,16.3,5,36.8,5s33-3,36.8-5c-0.7-0.4-1.9-0.9-3.8-1.5c-1.8-0.5-2.8-2.4-2.3-4.2
		c0.5-1.8,2.4-2.8,4.2-2.3c4,1.2,9.4,3.4,9.4,7.9C158.9,187.1,122,187.6,114.6,187.6"/>
	<path d="M114.6,187.6c-7.4,0-44.3-0.6-44.3-11.7c0-4.8,6.2-6.8,8.2-7.5c1.7-0.6,3.7,0.3,4.3,2.1c0.6,1.7-0.4,3.7-2.1,4.3
		c-1.3,0.4-2.2,0.8-2.8,1.2c3.7,2,16.3,5,36.8,5s33-3,36.8-5c-0.7-0.4-1.9-0.9-3.8-1.5c-1.8-0.5-2.8-2.4-2.3-4.2
		c0.5-1.8,2.4-2.8,4.2-2.3c4,1.2,9.4,3.4,9.4,7.9C158.9,187.1,122,187.6,114.6,187.6z"/>
</g>
</svg>
