<?xml version="1.0" encoding="utf-8"?>
<!-- Generator: Adobe Illustrator 23.0.0, SVG Export Plug-In . SVG Version: 6.00 Build 0)  -->
<svg version="1.1" id="Layer_1" xmlns="http://www.w3.org/2000/svg" xmlns:xlink="http://www.w3.org/1999/xlink" x="0px" y="0px"
	 viewBox="0 0 226.8 226.8" style="enable-background:new 0 0 226.8 226.8;" xml:space="preserve">
<style type="text/css">
	.st0{stroke:#000000;stroke-width:1.5302;stroke-miterlimit:10;}
</style>
<g>
	<path d="M125.5,155.3H101c-1.8,0-3.1-1.2-3.1-3.1v-7.7c-7.7-5.2-12.2-13.8-12.2-23c0-15.3,12.2-27.5,27.5-27.5s27.5,12.2,27.5,27.5
		c0,9.2-4.6,17.8-12.2,23v7.7C128.6,154.1,127.1,155.3,125.5,155.3 M104.1,149.2h18.4v-6.4c0-1.2,0.6-2.1,1.5-2.8
		c6.7-4,10.7-11,10.7-18.7c0-11.9-9.5-21.4-21.4-21.4s-21.4,9.5-21.4,21.4c0,7.7,4,14.7,10.7,18.7c0.9,0.6,1.5,1.5,1.5,2.8V149.2z"
		/>
	<path d="M125.5,155.3H101c-1.8,0-3.1-1.2-3.1-3.1v-7.7c-7.7-5.2-12.2-13.8-12.2-23c0-15.3,12.2-27.5,27.5-27.5s27.5,12.2,27.5,27.5
		c0,9.2-4.6,17.8-12.2,23v7.7C128.6,154.1,127.1,155.3,125.5,155.3z M104.1,149.2h18.4v-6.4c0-1.2,0.6-2.1,1.5-2.8
		c6.7-4,10.7-11,10.7-18.7c0-11.9-9.5-21.4-21.4-21.4s-21.4,9.5-21.4,21.4c0,7.7,4,14.7,10.7,18.7c0.9,0.6,1.5,1.5,1.5,2.8V149.2z"
		/>
	<rect x="104.1" y="161.4" width="18.4" height="6.1"/>
	<rect x="104.1" y="161.4" width="18.4" height="6.1"/>
	<path d="M166.8,137.9c-1.5,0-2.8-1.2-3.1-2.8c-1.2-8.9,5.8-12.9,9.8-14.1c1.5-0.3,3.4,0.6,3.7,2.1c0.3,1.5-0.6,3.4-2.1,3.7
		c-0.9,0.3-5.8,1.8-5.2,7c0.3,1.5-0.9,3.1-2.8,3.4C167.1,137.9,166.8,137.9,166.8,137.9"/>
	<path d="M166.8,137.9c-1.5,0-2.8-1.2-3.1-2.8c-1.2-8.9,5.8-12.9,9.8-14.1c1.5-0.3,3.4,0.6,3.7,2.1c0.3,1.5-0.6,3.4-2.1,3.7
		c-0.9,0.3-5.8,1.8-5.2,7c0.3,1.5-0.9,3.1-2.8,3.4C167.1,137.9,166.8,137.9,166.8,137.9z"/>
	<path d="M176.9,160.8c-0.6,0-0.9,0-1.5-0.3l-4.3-2.4c-0.9-0.6-1.8-0.6-2.8,0l-4,1.8c-1.5,0.6-3.4,0-4-1.5c-0.6-1.5,0-3.4,1.5-4
		l4-1.8c2.8-1.2,5.8-1.2,8.6,0.3l4.3,2.4c1.5,0.9,2.1,2.8,1.2,4.3C179.1,160.2,177.9,160.8,176.9,160.8"/>
	<path d="M176.9,160.8c-0.6,0-0.9,0-1.5-0.3l-4.3-2.4c-0.9-0.6-1.8-0.6-2.8,0l-4,1.8c-1.5,0.6-3.4,0-4-1.5c-0.6-1.5,0-3.4,1.5-4
		l4-1.8c2.8-1.2,5.8-1.2,8.6,0.3l4.3,2.4c1.5,0.9,2.1,2.8,1.2,4.3C179.1,160.2,177.9,160.8,176.9,160.8z"/>
	<path d="M157,114.3c-2.1,0-4.6-0.6-7-2.4c-1.2-0.9-1.5-3.1-0.6-4.3c0.9-1.2,3.1-1.5,4.3-0.6c3.7,2.8,8-0.3,8.3-0.3
		c1.5-0.9,3.4-0.6,4.3,0.6c0.9,1.2,0.6,3.4-0.6,4.3C165.3,111.9,161.6,114.3,157,114.3"/>
	<path d="M157,114.3c-2.1,0-4.6-0.6-7-2.4c-1.2-0.9-1.5-3.1-0.6-4.3c0.9-1.2,3.1-1.5,4.3-0.6c3.7,2.8,8-0.3,8.3-0.3
		c1.5-0.9,3.4-0.6,4.3,0.6c0.9,1.2,0.6,3.4-0.6,4.3C165.3,111.9,161.6,114.3,157,114.3z"/>
	<path d="M138.7,185.3c-0.6,0-1.5-0.3-2.1-0.9c-1.2-1.2-1.5-3.1-0.3-4.3c2.4-2.8,5.5-4.3,8.6-4.6c4.9-0.3,8.3,2.8,8.6,3.4
		c1.2,1.2,1.2,3.1,0,4.3c-1.2,1.2-3.1,1.2-4.3,0c0,0-1.8-1.8-4.3-1.5c-1.5,0-2.8,0.9-4.3,2.4C140.5,185,139.6,185.3,138.7,185.3"/>
	<path class="st0" d="M138.7,185.3c-0.6,0-1.5-0.3-2.1-0.9c-1.2-1.2-1.5-3.1-0.3-4.3c2.4-2.8,5.5-4.3,8.6-4.6
		c4.9-0.3,8.3,2.8,8.6,3.4c1.2,1.2,1.2,3.1,0,4.3c-1.2,1.2-3.1,1.2-4.3,0c0,0-1.8-1.8-4.3-1.5c-1.5,0-2.8,0.9-4.3,2.4
		C140.5,185,139.6,185.3,138.7,185.3z"/>
	<path d="M143.6,83.7c-1.2,0-2.4-0.9-3.1-2.1c-0.3-1.5-1.8-2.1-3.4-1.8c-1.5,0.6-3.4-0.3-4-2.1c-0.6-1.5,0.3-3.4,2.1-4
		c4.6-1.5,9.5,1.2,11,5.8c0.6,1.5-0.3,3.4-2.1,4C144.2,83.7,143.9,83.7,143.6,83.7"/>
	<path d="M143.6,83.7c-1.2,0-2.4-0.9-3.1-2.1c-0.3-1.5-1.8-2.1-3.4-1.8c-1.5,0.6-3.4-0.3-4-2.1c-0.6-1.5,0.3-3.4,2.1-4
		c4.6-1.5,9.5,1.2,11,5.8c0.6,1.5-0.3,3.4-2.1,4C144.2,83.7,143.9,83.7,143.6,83.7z"/>
	<path d="M59.7,137.9h-0.3c-1.5-0.3-2.8-1.8-2.8-3.4c0.6-5.5-4.6-7-5.2-7c-1.5-0.3-2.8-2.1-2.1-3.7c0.3-1.5,2.1-2.8,3.7-2.1
		c4,0.9,11,5.2,9.8,14.1C62.5,136.6,61.3,137.9,59.7,137.9"/>
	<path d="M59.7,137.9h-0.3c-1.5-0.3-2.8-1.8-2.8-3.4c0.6-5.5-4.6-7-5.2-7c-1.5-0.3-2.8-2.1-2.1-3.7c0.3-1.5,2.1-2.8,3.7-2.1
		c4,0.9,11,5.2,9.8,14.1C62.5,136.6,61.3,137.9,59.7,137.9z"/>
	<path d="M49.6,160.8c-1.2,0-2.1-0.6-2.8-1.5c-0.9-1.5-0.3-3.4,1.2-4.3l4.3-2.4c2.8-1.5,5.8-1.5,8.6-0.3l4,1.8
		c1.5,0.6,2.1,2.4,1.5,4c-0.6,1.5-2.4,2.1-4,1.5l-4-1.8c-0.9-0.3-1.8-0.3-2.8,0l-4.6,2.4C50.5,160.5,50.2,160.8,49.6,160.8"/>
	<path d="M49.6,160.8c-1.2,0-2.1-0.6-2.8-1.5c-0.9-1.5-0.3-3.4,1.2-4.3l4.3-2.4c2.8-1.5,5.8-1.5,8.6-0.3l4,1.8
		c1.5,0.6,2.1,2.4,1.5,4c-0.6,1.5-2.4,2.1-4,1.5l-4-1.8c-0.9-0.3-1.8-0.3-2.8,0l-4.6,2.4C50.5,160.5,50.2,160.8,49.6,160.8z"/>
	<path d="M69.5,114.3c-4.6,0-8.3-2.4-8.3-2.8c-1.2-0.9-1.5-2.8-0.6-4.3c0.9-1.2,2.8-1.5,4.3-0.6c0.3,0,4.6,3.1,8.3,0.3
		c1.2-0.9,3.4-0.9,4.3,0.6c0.9,1.2,0.9,3.4-0.6,4.3C74.1,113.7,71.7,114.3,69.5,114.3"/>
	<path d="M69.5,114.3c-4.6,0-8.3-2.4-8.3-2.8c-1.2-0.9-1.5-2.8-0.6-4.3c0.9-1.2,2.8-1.5,4.3-0.6c0.3,0,4.6,3.1,8.3,0.3
		c1.2-0.9,3.4-0.9,4.3,0.6c0.9,1.2,0.9,3.4-0.6,4.3C74.1,113.7,71.7,114.3,69.5,114.3z"/>
	<path d="M87.9,185.3c-0.9,0-1.8-0.3-2.4-0.9c-1.5-1.5-2.8-2.4-4.3-2.4c-2.4,0-4,1.5-4,1.5c-1.2,1.2-3.1,1.2-4.3,0
		c-1.2-1.2-1.2-3.1,0-4.3c0.3-0.3,3.7-3.4,8.6-3.4c3.1,0,6.1,1.5,8.6,4.6c1.2,1.2,0.9,3.1-0.3,4.3C89.1,185,88.5,185.3,87.9,185.3"
		/>
	<path class="st0" d="M87.9,185.3c-0.9,0-1.8-0.3-2.4-0.9c-1.5-1.5-2.8-2.4-4.3-2.4c-2.4,0-4,1.5-4,1.5c-1.2,1.2-3.1,1.2-4.3,0
		c-1.2-1.2-1.2-3.1,0-4.3c0.3-0.3,3.7-3.4,8.6-3.4c3.1,0,6.1,1.5,8.6,4.6c1.2,1.2,0.9,3.1-0.3,4.3C89.1,185,88.5,185.3,87.9,185.3z"
		/>
	<path d="M83,83.7c-0.3,0-0.6,0-0.9,0c-1.5-0.6-2.4-2.1-2.1-4c1.5-4.6,6.4-7.3,11-5.8c1.5,0.6,2.4,2.1,2.1,4c-0.6,1.5-2.1,2.4-4,2.1
		c-1.5-0.3-3.1,0.3-3.4,1.8C85.7,82.8,84.5,83.7,83,83.7"/>
	<path d="M83,83.7c-0.3,0-0.6,0-0.9,0c-1.5-0.6-2.4-2.1-2.1-4c1.5-4.6,6.4-7.3,11-5.8c1.5,0.6,2.4,2.1,2.1,4c-0.6,1.5-2.1,2.4-4,2.1
		c-1.5-0.3-3.1,0.3-3.4,1.8C85.7,82.8,84.5,83.7,83,83.7z"/>
	<path d="M113.3,42.1c-1.8,0-3.1-1.2-3.1-3.1V20.7c0-1.8,1.2-3.1,3.1-3.1s3.1,1.2,3.1,3.1V39C116.3,40.9,114.8,42.1,113.3,42.1"/>
	<path d="M113.3,42.1c-1.8,0-3.1-1.2-3.1-3.1V20.7c0-1.8,1.2-3.1,3.1-3.1s3.1,1.2,3.1,3.1V39C116.3,40.9,114.8,42.1,113.3,42.1z"/>
	<path d="M15.4,133.9H3.1c-1.8,0-3.1-1.2-3.1-3.1c0-1.8,1.2-3.1,3.1-3.1h12.2c1.8,0,3.1,1.2,3.1,3.1
		C18.4,132.7,16.9,133.9,15.4,133.9"/>
	<path d="M15.4,133.9H3.1c-1.8,0-3.1-1.2-3.1-3.1c0-1.8,1.2-3.1,3.1-3.1h12.2c1.8,0,3.1,1.2,3.1,3.1
		C18.4,132.7,16.9,133.9,15.4,133.9z"/>
	<path d="M223.8,133.9h-12.2c-1.8,0-3.1-1.2-3.1-3.1c0-1.8,1.2-3.1,3.1-3.1h12.2c1.8,0,3.1,1.2,3.1,3.1
		C226.8,132.7,225.3,133.9,223.8,133.9"/>
	<path d="M223.8,133.9h-12.2c-1.8,0-3.1-1.2-3.1-3.1c0-1.8,1.2-3.1,3.1-3.1h12.2c1.8,0,3.1,1.2,3.1,3.1
		C226.8,132.7,225.3,133.9,223.8,133.9z"/>
	<path d="M43.2,63.8c-0.9,0-1.5-0.3-2.1-0.9L28.2,50c-1.2-1.2-1.2-3.1,0-4.3c1.2-1.2,3.1-1.2,4.3,0l12.9,12.9c1.2,1.2,1.2,3.1,0,4.3
		C44.7,63.5,43.8,63.8,43.2,63.8"/>
	<path d="M43.2,63.8c-0.9,0-1.5-0.3-2.1-0.9L28.2,50c-1.2-1.2-1.2-3.1,0-4.3c1.2-1.2,3.1-1.2,4.3,0l12.9,12.9c1.2,1.2,1.2,3.1,0,4.3
		C44.7,63.5,43.8,63.8,43.2,63.8z"/>
	<path d="M183.4,63.8c-0.9,0-1.5-0.3-2.1-0.9c-1.2-1.2-1.2-3.1,0-4.3l12.9-12.9c1.2-1.2,3.1-1.2,4.3,0c1.2,1.2,1.2,3.1,0,4.3
		l-12.9,12.9C184.9,63.5,184.3,63.8,183.4,63.8"/>
	<path d="M183.4,63.8c-0.9,0-1.5-0.3-2.1-0.9c-1.2-1.2-1.2-3.1,0-4.3l12.9-12.9c1.2-1.2,3.1-1.2,4.3,0c1.2,1.2,1.2,3.1,0,4.3
		l-12.9,12.9C184.9,63.5,184.3,63.8,183.4,63.8z"/>
	<path d="M195.9,132.1c0-10.7-6.1-20.8-16.5-27.2c0.3-1.2,0.3-2.4,0.3-3.7c0-9.5-6.1-18.4-16.2-23.3c0-0.3,0-0.6,0-0.9
		c0-11-10.7-19.9-23.6-19.9S116.3,66,116.3,77v12.2h6.1V77c0-7.7,8-13.8,17.4-13.8c9.5,0,17.4,6.1,17.4,13.8c0,0.6,0,1.5-0.3,2.1
		c-0.3,1.5,0.6,3.1,1.8,3.4c8.9,3.4,14.4,10.7,14.4,18.4c0,1.5-0.3,3.1-0.6,4.6c-0.3,1.5,0.3,2.8,1.5,3.7c9.8,5.2,15.3,13.5,15.3,23
		c0,8.9-5.5,17.4-14.7,22.6c-1.2,0.6-1.8,2.4-1.2,3.7c0.9,2.1,1.2,4.3,1.2,6.4c0,8.3-6.1,15.6-15.6,19c-1.5,0.6-2.1,1.8-2.1,3.4
		c0,0.6,0.3,1.2,0.3,1.8c0,7.7-8,13.8-17.4,13.8s-17.4-6.1-17.4-13.8v-14.1h-6.1V189c0,11,10.7,19.9,23.6,19.9s23.6-8.9,23.6-19.9
		c0,0,0,0,0-0.3c10.7-4.6,17.4-13.5,17.4-23.9c0-2.1-0.3-4.3-0.9-6.4C190.1,152.3,195.9,142.8,195.9,132.1"/>
	<path d="M195.9,132.1c0-10.7-6.1-20.8-16.5-27.2c0.3-1.2,0.3-2.4,0.3-3.7c0-9.5-6.1-18.4-16.2-23.3c0-0.3,0-0.6,0-0.9
		c0-11-10.7-19.9-23.6-19.9S116.3,66,116.3,77v12.2h6.1V77c0-7.7,8-13.8,17.4-13.8c9.5,0,17.4,6.1,17.4,13.8c0,0.6,0,1.5-0.3,2.1
		c-0.3,1.5,0.6,3.1,1.8,3.4c8.9,3.4,14.4,10.7,14.4,18.4c0,1.5-0.3,3.1-0.6,4.6c-0.3,1.5,0.3,2.8,1.5,3.7c9.8,5.2,15.3,13.5,15.3,23
		c0,8.9-5.5,17.4-14.7,22.6c-1.2,0.6-1.8,2.4-1.2,3.7c0.9,2.1,1.2,4.3,1.2,6.4c0,8.3-6.1,15.6-15.6,19c-1.5,0.6-2.1,1.8-2.1,3.4
		c0,0.6,0.3,1.2,0.3,1.8c0,7.7-8,13.8-17.4,13.8s-17.4-6.1-17.4-13.8v-14.1h-6.1V189c0,11,10.7,19.9,23.6,19.9s23.6-8.9,23.6-19.9
		c0,0,0,0,0-0.3c10.7-4.6,17.4-13.5,17.4-23.9c0-2.1-0.3-4.3-0.9-6.4C190.1,152.3,195.9,142.8,195.9,132.1z"/>
	<path d="M110.2,77c0-11-10.7-19.9-23.6-19.9S63.1,66,63.1,77c0,0.3,0,0.6,0,0.9c-9.8,4.6-15.9,13.5-15.9,23.3c0,1.2,0,2.4,0.3,3.7
		C37.1,110.9,31,121,31,132.1c0,10.4,5.8,20.2,15.6,26.6c-0.6,2.1-0.9,4.3-0.9,6.4c0,10.1,6.7,19.3,17.4,23.9c0,0,0,0,0,0.3
		c0,11,10.7,19.9,23.6,19.9s23.6-8.9,23.6-19.9v-14.1h-6.1V189c0,7.7-8,13.8-17.4,13.8s-17.4-6.1-17.4-13.8c0-0.6,0-1.2,0.3-1.8
		c0.3-1.5-0.6-3.1-2.1-3.4c-9.5-3.1-15.6-10.7-15.6-19c0-2.1,0.3-4.3,1.2-6.4c0.6-1.5,0-3.1-1.2-4c-9.2-5.2-14.7-13.5-14.7-22.6
		s5.8-17.8,15.3-23c1.2-0.6,1.8-2.1,1.5-3.7c-0.3-1.5-0.6-3.1-0.6-4.6c0-7.7,5.5-15,14.4-18.4c1.5-0.6,2.1-2.1,1.8-3.4
		c-0.3-0.9-0.3-1.5-0.3-2.1c0-7.7,8-13.8,17.4-13.8s17.4,6.1,17.4,13.8v12.2h6.1V77z"/>
	<path d="M110.2,77c0-11-10.7-19.9-23.6-19.9S63.1,66,63.1,77c0,0.3,0,0.6,0,0.9c-9.8,4.6-15.9,13.5-15.9,23.3c0,1.2,0,2.4,0.3,3.7
		C37.1,110.9,31,121,31,132.1c0,10.4,5.8,20.2,15.6,26.6c-0.6,2.1-0.9,4.3-0.9,6.4c0,10.1,6.7,19.3,17.4,23.9c0,0,0,0,0,0.3
		c0,11,10.7,19.9,23.6,19.9s23.6-8.9,23.6-19.9v-14.1h-6.1V189c0,7.7-8,13.8-17.4,13.8s-17.4-6.1-17.4-13.8c0-0.6,0-1.2,0.3-1.8
		c0.3-1.5-0.6-3.1-2.1-3.4c-9.5-3.1-15.6-10.7-15.6-19c0-2.1,0.3-4.3,1.2-6.4c0.6-1.5,0-3.1-1.2-4c-9.2-5.2-14.7-13.5-14.7-22.6
		s5.8-17.8,15.3-23c1.2-0.6,1.8-2.1,1.5-3.7c-0.3-1.5-0.6-3.1-0.6-4.6c0-7.7,5.5-15,14.4-18.4c1.5-0.6,2.1-2.1,1.8-3.4
		c-0.3-0.9-0.3-1.5-0.3-2.1c0-7.7,8-13.8,17.4-13.8s17.4,6.1,17.4,13.8v12.2h6.1V77z"/>
</g>
</svg>
