<?xml version="1.0" encoding="utf-8"?>
<!-- Generator: Adobe Illustrator 23.0.0, SVG Export Plug-In . SVG Version: 6.00 Build 0)  -->
<svg version="1.1" id="Layer_1" xmlns="http://www.w3.org/2000/svg" xmlns:xlink="http://www.w3.org/1999/xlink" x="0px" y="0px"
	 viewBox="0 0 226.8 226.8" style="enable-background:new 0 0 226.8 226.8;" xml:space="preserve">
<g>
	<path d="M127.2,47.9c11.5,0,20.9-8.2,23.3-18.8l10.6,2.9c0.4,0,0.4,0,0.8,0c1.2,0,2-0.8,2.5-2c0.4-1.2-0.4-2.9-2-2.9l-11.5-3.3
		c0-13.1-10.6-23.7-23.7-23.7S103,10.7,103,24.2S114.1,47.9,127.2,47.9 M127.2,5.4c9.8,0,17.6,7.4,18.4,16.8l-33.6-9
		C115.3,8.6,121,5.4,127.2,5.4 M109.6,18.1l36,9.8c-1.6,8.6-9.4,14.7-18.4,14.7c-10.2,0-18.8-8.2-18.8-18.8
		C108.3,21.7,108.7,20.1,109.6,18.1"/>
	<path d="M208.6,164.2c-0.4-1.2-2-2-3.3-1.6l-4.5,1.2l-20.1-60.6c5.3-4.1,6.5-11.9,3.3-17.6c-1.6-3.3-4.9-5.7-8.6-6.5
		c-1.2-0.4-2-0.4-3.3-0.4l-3.7-11.5c-0.4-1.2-2-2-3.3-1.6c-1.2,0.4-2,2-1.6,3.3l3.7,10.6c-0.8,0.4-1.6,0.4-2,0.8L153.8,86
		l-28.7-29.5c-5.7-6.1-13.9-8.2-21.7-6.1c-2.9,0.8-5.7,2-7.8,3.7c0.4-4.5-0.8-9.4-3.3-13.5c-3.3-5.3-8.2-9.4-14.3-11.1
		C65.3,26.2,52.2,33.6,49,46.3L37.5,88.5l-3.3-0.8c-1.6-0.4-3.7-0.4-4.9,0.8c-1.6,0.8-2.5,2.5-3.3,4.1l-7.8,28.7
		c-0.4,1.6-0.4,3.7,0.8,4.9c0.8,1.6,2.5,2.5,4.1,3.3l3.3,0.8l-1.2,3.7c-2,7.4,2.5,14.7,9.4,16.4l19.6,5.3c1.2,0.4,2.5,0.4,3.7,0.4
		c2.5,0,4.5-0.4,6.5-1.6c3.3-1.6,5.3-4.5,6.1-8.2l1.2-3.7c1.2,3.7,3.3,7.4,5.7,10.6l-7,20.5l-26.2,29.1c-2.9,2.9-4.1,6.1-4.1,10.2
		c0,3.7,1.6,7.4,4.1,9.8c2.5,2.9,6.1,4.1,9.8,4.1l0,0c3.7,0,7.4-1.2,9.8-4.1l31.5-31.1l8.2-16.8l17.2,13.1l-1.6,24.6
		c0,7.4,5.7,13.5,13.1,13.9c0.4,0,0.8,0,1.2,0c3.3,0,6.5-1.2,9.4-3.3c2.9-2.5,4.5-6.1,4.9-9.8l1.6-30.3c0.4-5.7-2-10.6-6.1-14.3
		l-26.6-23.3l11.9-44.2l13.1,13.9c2.5,2.5,5.3,3.7,8.6,3.7c2,0,4.1-0.4,5.7-1.6l19.6-11.1l19.6,59.4l-4.5,1.6c-1.2,0.4-2,2-1.6,3.3
		c0.4,1.2,1.2,1.6,2.5,1.6c0.4,0,0.4,0,0.8,0l4.5-1.6l3.3,9.8c0.4,1.2,1.2,1.6,2.5,1.6c0.4,0,0.4,0,0.8,0c1.2-0.4,2-2,1.6-3.3
		l-3.3-9.8l4.5-1.6C208.2,167.1,209,165.4,208.6,164.2 M54.3,47.5c2-8.2,9.8-13.5,17.6-13.5c1.6,0,3.3,0.4,4.9,0.8
		c4.9,1.2,8.6,4.5,11.1,8.6c2.5,4.1,3.3,9.4,1.6,13.9l-5.7,21.3l-35.6-9.8L54.3,47.5z M24.4,123.7c-0.4,0-0.8-0.4-0.8-0.4
		c0-0.4-0.4-0.8,0-0.8l7.8-28.7c0-0.4,0.4-0.8,0.4-0.8c0.4,0,0.8-0.4,0.8,0l3.3,0.8l-8.6,31.1L24.4,123.7z M66.2,144.5
		c-0.4,2-2,3.7-3.7,4.9c-2,1.2-4.1,1.2-6.1,0.8L36.7,145c-4.9-1.2-7.4-5.7-6.1-9.8l16.8-61.4l35.6,9.8L66.2,144.5z M92.4,187.9
		l-31.1,30.7c-1.6,1.6-3.7,2.9-6.1,2.5c-2.5,0-4.5-0.8-6.1-2.5c-1.6-1.6-2.5-3.7-2.5-6.1s0.8-4.5,2.9-6.5l27-29.9l6.5-18.8
		c0.4,0.4,1.2,1.2,1.6,1.6l16.4,12.7L92.4,187.9z M153.8,112.2c-2.5,1.2-5.7,0.8-7.8-1.2l-22.5-23.3c-0.8-1.2-2.9-1.2-3.7,0
		c-1.2,0.8-1.2,2.9,0,3.7l4.9,4.9l-11.9,44.6l-4.9-4.5c-1.2-0.8-2.9-0.8-3.7,0.4c-0.8,1.2-0.8,2.9,0.4,3.7l36,31.5
		c2.9,2.5,4.5,6.1,4.1,10.2l-2,30.7c0,2.5-1.2,4.5-2.9,6.1c-1.6,1.6-4.1,2.5-6.5,2c-4.5-0.4-8.2-4.1-8.2-8.6l1.6-27L87,154.4
		c-9-7-13.1-18.4-10.2-29.5l15.6-57.3l0,0c1.6-6.1,6.1-10.6,12.3-12.3c6.1-1.6,12.3,0.4,16.8,4.9L152.5,93l14.3-8.2
		c2-1.2,4.5-1.2,6.5-0.8c2.5,0.8,4.1,2,5.3,4.1c2.5,4.1,0.8,9.8-3.3,11.9L153.8,112.2z"/>
</g>
</svg>
