<?xml version="1.0" encoding="utf-8"?>
<!-- Generator: Adobe Illustrator 23.0.0, SVG Export Plug-In . SVG Version: 6.00 Build 0)  -->
<svg version="1.1" id="Layer_1" xmlns="http://www.w3.org/2000/svg" xmlns:xlink="http://www.w3.org/1999/xlink" x="0px" y="0px"
	 viewBox="0 0 226.8 226.8" style="enable-background:new 0 0 226.8 226.8;" xml:space="preserve">
<g>
	<path d="M124.3,144.5L190.7,39c5.3-8.6-0.8-19.9-10.9-19.9H47c-10.1,0-16.1,11.3-10.9,19.9l66.4,105.5
		C107.4,152.7,119,152.7,124.3,144.5z"/>
	<path d="M225.6,99.8c-2.6-7.1-9.4-11.6-16.9-11.6h-29.3l-4.5,7.1h34.2c5.3,0,8.6,3.4,9.8,6.8c1.1,3.4,1.1,8.3-3,11.6l-95.3,84.1
		c-4.1,3.4-10.1,3.4-13.9,0l-95.7-84.1c-4.1-3.4-4.1-8.3-3-11.6c1.1-3.4,4.5-6.8,9.8-6.8h34.2l-4.5-7.1H18.1
		c-7.5,0-14.3,4.5-16.9,11.6S0.4,114.5,6,119.3l95.3,83.7c3.4,3,7.5,4.5,12,4.5c4.1,0,8.6-1.5,12-4.5l95.3-83.7
		C226.4,114.5,228.2,106.6,225.6,99.8z"/>
</g>
</svg>
