<?xml version="1.0" encoding="utf-8"?>
<!-- Generator: Adobe Illustrator 23.0.0, SVG Export Plug-In . SVG Version: 6.00 Build 0)  -->
<svg version="1.1" id="Layer_1" xmlns="http://www.w3.org/2000/svg" xmlns:xlink="http://www.w3.org/1999/xlink" x="0px" y="0px"
	 viewBox="0 0 226.8 226.8" style="enable-background:new 0 0 226.8 226.8;" xml:space="preserve">
<path d="M71.2,206.5c85.6,0,132.4-70.9,132.4-132.3c0-2,0-4-0.1-6c9.1-6.6,17-14.8,23.2-24.1c-8.5,3.8-17.5,6.2-26.8,7.3
	c9.7-5.8,17-15,20.5-25.8c-9.1,5.4-19.1,9.2-29.6,11.2c-7-7.5-16.3-12.4-26.4-14.1c-10.1-1.7-20.5,0.1-29.5,4.9
	c-9,4.8-16.2,12.5-20.5,21.8c-4.2,9.3-5.3,19.8-2.9,29.8C93.1,78.5,75,73.6,58.5,65.3C42,56.9,27.4,45.2,15.7,30.8
	C9.8,41,8,53.2,10.6,64.7c2.7,11.5,9.6,21.6,19.5,28.2c-7.4-0.3-14.6-2.2-21.1-5.8v0.6c0,10.7,3.7,21.1,10.5,29.4
	c6.8,8.3,16.3,14,26.8,16.2c-4,1.1-8.1,1.6-12.3,1.6c-2.9,0-5.8-0.3-8.7-0.8c3,9.2,8.8,17.3,16.6,23.1c7.8,5.8,17.2,9,26.9,9.2
	c-16.5,13-36.9,20-57.8,19.9c-3.7,0-7.4-0.2-11.1-0.6C21.3,199.3,46,206.5,71.2,206.5L71.2,206.5z"/>
</svg>
